{"asset":{"version":"2.0","generator":"babylon.js glTF exporter for 3dsmax 2020 v20200508.2"},"scene":0,"scenes":[{"nodes":[0,1,2,3,4,5,6,7,8,9,10,11,12,13,14,15,16,17]}],"nodes":[{"mesh":0,"translation":[-1.03523526E-07,0.537592,-0.0002477134],"scale":[39.49743,39.49743,39.49743],"name":"Box001"},{"mesh":1,"translation":[-0.00355233881,0.383094043,-0.000521616],"scale":[39.49743,39.49743,39.49743],"name":"Box002"},{"mesh":2,"translation":[0.267151415,0.537592,0.0137975831],"scale":[39.49743,39.49743,39.49743],"name":"Box006"},{"mesh":3,"translation":[-0.267556161,0.5374172,0.0137975831],"scale":[39.49743,39.49743,39.49743],"name":"Box007"},{"mesh":4,"translation":[-0.799577534,0.403158516,0.182842717],"rotation":[8.14603354E-08,0.0,0.0,1.0],"scale":[39.49743,39.49743,39.49743],"name":"Box008"},{"mesh":5,"translation":[-0.265195042,0.403158516,0.182842717],"rotation":[8.14603354E-08,0.0,0.0,1.0],"scale":[39.49743,39.49743,39.49743],"name":"Box009"},{"mesh":6,"translation":[0.2692076,0.403125763,0.182842717],"rotation":[8.14603354E-08,0.0,0.0,1.0],"scale":[39.49743,39.49743,39.49743],"name":"Box010"},{"mesh":7,"translation":[-1.03523526E-07,0.217487887,-0.00024777322],"scale":[39.49743,39.49743,39.49743],"name":"Box011"},{"mesh":8,"translation":[-1.03523526E-07,0.29134813,-0.000247758464],"rotation":[0.7071068,0.0,0.0,0.7071067],"scale":[39.49743,39.49743,39.49743],"name":"VIFS130"},{"mesh":9,"translation":[-1.03523526E-07,0.29134813,0.000242102309],"rotation":[0.7071068,0.0,0.0,0.7071067],"scale":[39.49743,39.49743,39.49743],"name":"VIFS079"},{"mesh":10,"translation":[-1.03523526E-07,0.29134813,-0.000247758464],"rotation":[0.7071068,0.0,0.0,0.7071067],"scale":[39.49743,39.49743,39.49743],"name":"VIFS077"},{"mesh":11,"translation":[-1.03523526E-07,0.29134813,-0.000247758464],"rotation":[0.7071068,0.0,0.0,0.7071067],"scale":[39.49743,39.49743,39.49743],"name":"VIFS075"},{"mesh":12,"translation":[-1.03523526E-07,0.29134813,-0.000247758464],"rotation":[0.7071068,0.0,0.0,0.7071067],"scale":[39.49743,39.49743,39.49743],"name":"VIFS073"},{"mesh":13,"translation":[-1.03523526E-07,0.29134813,-0.000247758464],"rotation":[0.7071068,0.0,0.0,0.7071067],"scale":[39.49743,39.49743,39.49743],"name":"VIFS069"},{"mesh":14,"translation":[0.8025877,0.196949229,-0.168289617],"name":"Box013"},{"mesh":15,"translation":[0.7936258,0.232608721,-0.00171244389],"rotation":[0.0,-0.7071068,0.0,0.7071067],"name":"Box014"},{"mesh":16,"translation":[-0.7935746,0.232608765,-0.00171240757],"rotation":[0.0,-0.7071068,0.0,0.7071067],"name":"Box015"},{"name":"Default light"}],"meshes":[{"primitives":[{"attributes":{"POSITION":1,"NORMAL":2,"TEXCOORD_0":3},"indices":0,"material":0}],"name":"Box001"},{"primitives":[{"attributes":{"POSITION":5,"NORMAL":6,"TEXCOORD_0":7},"indices":4,"material":0}],"name":"Box002"},{"primitives":[{"attributes":{"POSITION":9,"NORMAL":10,"TEXCOORD_0":11},"indices":8,"material":0}],"name":"Box006"},{"primitives":[{"attributes":{"POSITION":13,"NORMAL":14,"TEXCOORD_0":15},"indices":12,"material":0}],"name":"Box007"},{"primitives":[{"attributes":{"POSITION":17,"NORMAL":18,"TEXCOORD_0":19},"indices":16,"material":0}],"name":"Box008"},{"primitives":[{"attributes":{"POSITION":21,"NORMAL":22,"TEXCOORD_0":23},"indices":20,"material":0}],"name":"Box009"},{"primitives":[{"attributes":{"POSITION":25,"NORMAL":26,"TEXCOORD_0":27},"indices":24,"material":0}],"name":"Box010"},{"primitives":[{"attributes":{"POSITION":29,"NORMAL":30,"TEXCOORD_0":31},"indices":28,"material":0}],"name":"Box011"},{"primitives":[{"attributes":{"POSITION":33,"NORMAL":34},"indices":32,"material":1}],"name":"VIFS130"},{"primitives":[{"attributes":{"POSITION":36,"NORMAL":37,"TEXCOORD_0":38},"indices":35,"material":2}],"name":"VIFS079"},{"primitives":[{"attributes":{"POSITION":40,"NORMAL":41,"TEXCOORD_0":42},"indices":39,"material":2}],"name":"VIFS077"},{"primitives":[{"attributes":{"POSITION":44,"NORMAL":45,"TEXCOORD_0":46},"indices":43,"material":2}],"name":"VIFS075"},{"primitives":[{"attributes":{"POSITION":48,"NORMAL":49,"TEXCOORD_0":50},"indices":47,"material":2}],"name":"VIFS073"},{"primitives":[{"attributes":{"POSITION":52,"NORMAL":53,"TEXCOORD_0":54},"indices":51,"material":2}],"name":"VIFS069"},{"primitives":[{"attributes":{"POSITION":56,"NORMAL":57,"TEXCOORD_0":58},"indices":55,"material":0}],"name":"Box013"},{"primitives":[{"attributes":{"POSITION":60,"NORMAL":61,"TEXCOORD_0":62},"indices":59,"material":0}],"name":"Box014"},{"primitives":[{"attributes":{"POSITION":64,"NORMAL":65,"TEXCOORD_0":66},"indices":63,"material":0}],"name":"Box015"}],"accessors":[{"bufferView":0,"componentType":5123,"count":36,"type":"SCALAR","name":"accessorIndices"},{"bufferView":1,"componentType":5126,"count":36,"max":[0.0202691983,0.0006349986,0.0042545],"min":[-0.0202691983,0.0,-0.0042545],"type":"VEC3","name":"accessorPositions"},{"bufferView":1,"byteOffset":432,"componentType":5126,"count":36,"type":"VEC3","name":"accessorNormals"},{"bufferView":2,"componentType":5126,"count":36,"type":"VEC2","name":"accessorUVs"},{"bufferView":0,"byteOffset":72,"componentType":5123,"count":36,"type":"SCALAR","name":"accessorIndices"},{"bufferView":1,"byteOffset":864,"componentType":5126,"count":36,"max":[0.0203591343,0.0003047987,0.004247566],"min":[-0.0201792642,0.0,-0.004247566],"type":"VEC3","name":"accessorPositions"},{"bufferView":1,"byteOffset":1296,"componentType":5126,"count":36,"type":"VEC3","name":"accessorNormals"},{"bufferView":2,"byteOffset":288,"componentType":5126,"count":36,"type":"VEC2","name":"accessorUVs"},{"bufferView":0,"byteOffset":144,"componentType":5123,"count":36,"type":"SCALAR","name":"accessorIndices"},{"bufferView":1,"byteOffset":1728,"componentType":5126,"count":36,"max":[0.0001524003,0.0,0.0037973],"min":[-0.0001524003,-0.00772159826,-0.0037973],"type":"VEC3","name":"accessorPositions"},{"bufferView":1,"byteOffset":2160,"componentType":5126,"count":36,"type":"VEC3","name":"accessorNormals"},{"bufferView":2,"byteOffset":576,"componentType":5126,"count":36,"type":"VEC2","name":"accessorUVs"},{"bufferView":0,"byteOffset":216,"componentType":5123,"count":36,"type":"SCALAR","name":"accessorIndices"},{"bufferView":1,"byteOffset":2592,"componentType":5126,"count":36,"max":[0.000152399924,0.0,0.0037973],"min":[-0.000152399924,-0.00770000368,-0.0037973],"type":"VEC3","name":"accessorPositions"},{"bufferView":1,"byteOffset":3024,"componentType":5126,"count":36,"type":"VEC3","name":"accessorNormals"},{"bufferView":2,"byteOffset":864,"componentType":5126,"count":36,"type":"VEC2","name":"accessorUVs"},{"bufferView":0,"byteOffset":288,"componentType":5123,"count":36,"type":"SCALAR","name":"accessorIndices"},{"bufferView":1,"byteOffset":3456,"componentType":5126,"count":36,"max":[0.0134279625,-2.27093934E-11,-1.89244745E-10],"min":[-7.56979E-10,-0.0046,-0.0003810002],"type":"VEC3","name":"accessorPositions"},{"bufferView":1,"byteOffset":3888,"componentType":5126,"count":36,"type":"VEC3","name":"accessorNormals"},{"bufferView":2,"byteOffset":1152,"componentType":5126,"count":36,"type":"VEC2","name":"accessorUVs"},{"bufferView":0,"byteOffset":360,"componentType":5123,"count":36,"type":"SCALAR","name":"accessorIndices"},{"bufferView":1,"byteOffset":4320,"componentType":5126,"count":36,"max":[0.0134279625,-2.27093934E-11,-1.89244745E-10],"min":[-7.56979E-10,-0.0046,-0.0003810002],"type":"VEC3","name":"accessorPositions"},{"bufferView":1,"byteOffset":4752,"componentType":5126,"count":36,"type":"VEC3","name":"accessorNormals"},{"bufferView":2,"byteOffset":1440,"componentType":5126,"count":36,"type":"VEC2","name":"accessorUVs"},{"bufferView":0,"byteOffset":432,"componentType":5123,"count":36,"type":"SCALAR","name":"accessorIndices"},{"bufferView":1,"byteOffset":5184,"componentType":5126,"count":36,"max":[0.0134279625,-2.27093934E-11,-1.89244745E-10],"min":[-7.56979E-10,-0.0046,-0.0003810002],"type":"VEC3","name":"accessorPositions"},{"bufferView":1,"byteOffset":5616,"componentType":5126,"count":36,"type":"VEC3","name":"accessorNormals"},{"bufferView":2,"byteOffset":1728,"componentType":5126,"count":36,"type":"VEC2","name":"accessorUVs"},{"bufferView":0,"byteOffset":504,"componentType":5123,"count":36,"type":"SCALAR","name":"accessorIndices"},{"bufferView":1,"byteOffset":6048,"componentType":5126,"count":36,"max":[0.0202691983,0.0004,0.0042545],"min":[-0.0202691983,0.0,-0.0042545],"type":"VEC3","name":"accessorPositions"},{"bufferView":1,"byteOffset":6480,"componentType":5126,"count":36,"type":"VEC3","name":"accessorNormals"},{"bufferView":2,"byteOffset":2016,"componentType":5126,"count":36,"type":"VEC2","name":"accessorUVs"},{"bufferView":0,"byteOffset":576,"componentType":5123,"count":4194,"type":"SCALAR","name":"accessorIndices"},{"bufferView":1,"byteOffset":6912,"componentType":5126,"count":4194,"max":[0.000864812639,-0.0041021,-0.00356379221],"min":[-0.0008648127,-0.0045339,-0.00529826758],"type":"VEC3","name":"accessorPositions"},{"bufferView":1,"byteOffset":57240,"componentType":5126,"count":4194,"type":"VEC3","name":"accessorNormals"},{"bufferView":0,"byteOffset":8964,"componentType":5123,"count":180,"type":"SCALAR","name":"accessorIndices"},{"bufferView":1,"byteOffset":107568,"componentType":5126,"count":180,"max":[0.0181227345,0.004863936,0.007336395],"min":[0.015931394,0.00267259334,0.00186817022],"type":"VEC3","name":"accessorPositions"},{"bufferView":1,"byteOffset":109728,"componentType":5126,"count":180,"type":"VEC3","name":"accessorNormals"},{"bufferView":2,"byteOffset":2304,"componentType":5126,"count":180,"type":"VEC2","name":"accessorUVs"},{"bufferView":0,"byteOffset":9324,"componentType":5123,"count":180,"type":"SCALAR","name":"accessorIndices"},{"bufferView":1,"byteOffset":111888,"componentType":5126,"count":180,"max":[-0.015931394,0.004863936,0.0073363944],"min":[-0.0181227345,0.00267259334,0.00186817022],"type":"VEC3","name":"accessorPositions"},{"bufferView":1,"byteOffset":114048,"componentType":5126,"count":180,"type":"VEC3","name":"accessorNormals"},{"bufferView":2,"byteOffset":3744,"componentType":5126,"count":180,"type":"VEC2","name":"accessorUVs"},{"bufferView":0,"byteOffset":9684,"componentType":5123,"count":180,"type":"SCALAR","name":"accessorIndices"},{"bufferView":1,"byteOffset":116208,"componentType":5126,"count":180,"max":[0.0181227345,-0.00267259334,0.007336398],"min":[0.015931394,-0.00486393645,0.00186817022],"type":"VEC3","name":"accessorPositions"},{"bufferView":1,"byteOffset":118368,"componentType":5126,"count":180,"type":"VEC3","name":"accessorNormals"},{"bufferView":2,"byteOffset":5184,"componentType":5126,"count":180,"type":"VEC2","name":"accessorUVs"},{"bufferView":0,"byteOffset":10044,"componentType":5123,"count":180,"type":"SCALAR","name":"accessorIndices"},{"bufferView":1,"byteOffset":120528,"componentType":5126,"count":180,"max":[-0.015931394,-0.00267259334,0.007336398],"min":[-0.0181227345,-0.00486393645,0.00186817022],"type":"VEC3","name":"accessorPositions"},{"bufferView":1,"byteOffset":122688,"componentType":5126,"count":180,"type":"VEC3","name":"accessorNormals"},{"bufferView":2,"byteOffset":6624,"componentType":5126,"count":180,"type":"VEC2","name":"accessorUVs"},{"bufferView":0,"byteOffset":10404,"componentType":5123,"count":126,"type":"SCALAR","name":"accessorIndices"},{"bufferView":1,"byteOffset":124848,"componentType":5126,"count":126,"max":[0.000443257071,0.0018796,0.00732916966],"min":[-0.000443257071,0.0009930824,0.00186817022],"type":"VEC3","name":"accessorPositions"},{"bufferView":1,"byteOffset":126360,"componentType":5126,"count":126,"type":"VEC3","name":"accessorNormals"},{"bufferView":2,"byteOffset":8064,"componentType":5126,"count":126,"type":"VEC2","name":"accessorUVs"},{"bufferView":0,"byteOffset":10656,"componentType":5123,"count":264,"type":"SCALAR","name":"accessorIndices"},{"bufferView":1,"byteOffset":127872,"componentType":5126,"count":264,"max":[0.0,0.386245459,-3.63349919E-08],"min":[-1.6051755,-1.21116637E-08,-0.0120389331],"type":"VEC3","name":"accessorPositions"},{"bufferView":1,"byteOffset":131040,"componentType":5126,"count":264,"type":"VEC3","name":"accessorNormals"},{"bufferView":2,"byteOffset":9072,"componentType":5126,"count":264,"type":"VEC2","name":"accessorUVs"},{"bufferView":0,"byteOffset":11184,"componentType":5123,"count":36,"type":"SCALAR","name":"accessorIndices"},{"bufferView":1,"byteOffset":134208,"componentType":5126,"count":36,"max":[0.1675,0.15,0.005],"min":[-0.1675,0.0,-0.005],"type":"VEC3","name":"accessorPositions"},{"bufferView":1,"byteOffset":134640,"componentType":5126,"count":36,"type":"VEC3","name":"accessorNormals"},{"bufferView":2,"byteOffset":11184,"componentType":5126,"count":36,"type":"VEC2","name":"accessorUVs"},{"bufferView":0,"byteOffset":11256,"componentType":5123,"count":36,"type":"SCALAR","name":"accessorIndices"},{"bufferView":1,"byteOffset":135072,"componentType":5126,"count":36,"max":[0.1675,0.15,0.005],"min":[-0.1675,0.0,-0.005],"type":"VEC3","name":"accessorPositions"},{"bufferView":1,"byteOffset":135504,"componentType":5126,"count":36,"type":"VEC3","name":"accessorNormals"},{"bufferView":2,"byteOffset":11472,"componentType":5126,"count":36,"type":"VEC2","name":"accessorUVs"}],"bufferViews":[{"buffer":0,"byteLength":11328,"name":"bufferViewScalar"},{"buffer":0,"byteOffset":11328,"byteLength":135936,"byteStride":12,"name":"bufferViewFloatVec3"},{"buffer":0,"byteOffset":147264,"byteLength":11760,"byteStride":8,"name":"bufferViewFloatVec2"}],"buffers":[{"uri":"MDSA-Rack.bin","byteLength":159024}],"materials":[{"pbrMetallicRoughness":{"baseColorFactor":[0.5,0.5,0.5,1.0],"metallicFactor":0.0,"roughnessFactor":0.0},"name":"MDF Branco"},{"pbrMetallicRoughness":{"baseColorFactor":[0.05,0.05,0.05,1.0],"metallicFactor":0.0,"roughnessFactor":0.630481},"name":"18 - Rubber"},{"pbrMetallicRoughness":{"baseColorTexture":{"index":0},"metallicFactor":0.0,"roughnessFactor":0.0},"name":"02 - Default"}],"textures":[{"sampler":0,"source":0,"name":"Madeira-Pe_256.jpg"}],"images":[{"uri":"./Madeira-Pe_256.jpg"}],"samplers":[{"magFilter":9729,"minFilter":9987}]}