{"asset":{"version":"2.0","generator":"babylon.js glTF exporter for 3dsmax 2020 v20200508.2"},"scene":0,"scenes":[{"nodes":[0,19]}],"nodes":[{"children":[1,2,3,4,5,6,7,8,9,10,11,12,13,14,15,16,17,18],"translation":[-1.03523526E-07,0.292387,-2.88398724E-06],"scale":[0.0394974276,0.0394974276,0.0394974276],"name":"Group001"},{"mesh":0,"translation":[-5.216999E-06,-7.351054,-0.00477854],"rotation":[0.7071068,0.0,0.0,0.7071067],"name":"Cylinder001"},{"mesh":1,"translation":[0.0,6.208128,-0.006198618],"scale":[1000.0,1000.0,1000.0],"name":"Box001"},{"mesh":2,"translation":[-0.0899359062,2.296528,-0.0131333033],"scale":[1000.0,1000.0,1000.0],"name":"Box002"},{"mesh":3,"translation":[0.0,-2.4163022,-4.41310024],"scale":[1000.0,1000.0,1000.0],"name":"Box003"},{"mesh":4,"translation":[6.68883562,6.20812464,0.349401355],"scale":[1000.0,1000.0,1000.0],"name":"Box006"},{"mesh":5,"translation":[-6.68883562,6.203697,0.349401355],"scale":[1000.0,1000.0,1000.0],"name":"Box007"},{"mesh":6,"translation":[20.2184,0.391527265,-0.0315998],"rotation":[-0.5,-0.5,0.5,-0.5],"scale":[1000.0,1000.0,1000.0],"name":"Plane001"},{"mesh":7,"translation":[-20.2184,0.391527265,-0.0315998],"rotation":[0.5,-0.5,0.50000006,0.49999994],"scale":[1000.0,1000.0,1000.0],"name":"Plane002"},{"mesh":8,"translation":[-20.2437973,2.80452657,4.6293],"rotation":[8.14603354E-08,0.0,0.0,1.0],"scale":[1000.0,1000.0,1000.0],"name":"Box008"},{"mesh":9,"translation":[-6.714235,2.80452657,4.6293],"rotation":[8.14603354E-08,0.0,0.0,1.0],"scale":[1000.0,1000.0,1000.0],"name":"Box009"},{"mesh":10,"translation":[6.81583643,2.80369782,4.6293],"rotation":[8.14603354E-08,0.0,0.0,1.0],"scale":[1000.0,1000.0,1000.0],"name":"Box010"},{"mesh":11,"translation":[0.0,-1.89630246,-0.00620013243],"scale":[1000.0,1000.0,1000.0],"name":"Box011"},{"mesh":12,"translation":[0.0,-0.02630227,-0.006199754],"rotation":[0.7071068,0.0,0.0,0.7071067],"scale":[1000.0,1000.0,1000.0],"name":"VIFS130"},{"mesh":13,"translation":[0.0,-0.02630227,0.00620259],"rotation":[0.7071068,0.0,0.0,0.7071067],"scale":[1000.0,1000.0,1000.0],"name":"VIFS079"},{"mesh":14,"translation":[0.0,-0.02630227,-0.006199754],"rotation":[0.7071068,0.0,0.0,0.7071067],"scale":[1000.0,1000.0,1000.0],"name":"VIFS077"},{"mesh":15,"translation":[0.0,-0.02630227,-0.006199754],"rotation":[0.7071068,0.0,0.0,0.7071067],"scale":[1000.0,1000.0,1000.0],"name":"VIFS075"},{"mesh":16,"translation":[0.0,-0.02630227,-0.006199754],"rotation":[0.7071068,0.0,0.0,0.7071067],"scale":[1000.0,1000.0,1000.0],"name":"VIFS073"},{"mesh":17,"translation":[0.0,-0.02630227,-0.006199754],"rotation":[0.7071068,0.0,0.0,0.7071067],"scale":[1000.0,1000.0,1000.0],"name":"VIFS069"},{"name":"Default light"}],"meshes":[{"primitives":[{"attributes":{"POSITION":1,"NORMAL":2,"TEXCOORD_0":3},"indices":0}],"name":"Cylinder001"},{"primitives":[{"attributes":{"POSITION":5,"NORMAL":6,"TEXCOORD_0":7},"indices":4}],"name":"Box001"},{"primitives":[{"attributes":{"POSITION":9,"NORMAL":10,"TEXCOORD_0":11},"indices":8}],"name":"Box002"},{"primitives":[{"attributes":{"POSITION":13,"NORMAL":14,"COLOR_0":15,"TEXCOORD_0":16},"indices":12}],"name":"Box003"},{"primitives":[{"attributes":{"POSITION":18,"NORMAL":19,"TEXCOORD_0":20},"indices":17}],"name":"Box006"},{"primitives":[{"attributes":{"POSITION":22,"NORMAL":23,"TEXCOORD_0":24},"indices":21}],"name":"Box007"},{"primitives":[{"attributes":{"POSITION":26,"NORMAL":27,"TEXCOORD_0":28},"indices":25}],"name":"Plane001"},{"primitives":[{"attributes":{"POSITION":30,"NORMAL":31,"TEXCOORD_0":32},"indices":29}],"name":"Plane002"},{"primitives":[{"attributes":{"POSITION":34,"NORMAL":35,"TEXCOORD_0":36},"indices":33}],"name":"Box008"},{"primitives":[{"attributes":{"POSITION":38,"NORMAL":39,"TEXCOORD_0":40},"indices":37}],"name":"Box009"},{"primitives":[{"attributes":{"POSITION":42,"NORMAL":43,"TEXCOORD_0":44},"indices":41}],"name":"Box010"},{"primitives":[{"attributes":{"POSITION":46,"NORMAL":47,"TEXCOORD_0":48},"indices":45}],"name":"Box011"},{"primitives":[{"attributes":{"POSITION":50,"NORMAL":51},"indices":49,"material":0}],"name":"VIFS130"},{"primitives":[{"attributes":{"POSITION":53,"NORMAL":54,"TEXCOORD_0":55},"indices":52,"material":1}],"name":"VIFS079"},{"primitives":[{"attributes":{"POSITION":57,"NORMAL":58,"TEXCOORD_0":59},"indices":56,"material":2}],"name":"VIFS077"},{"primitives":[{"attributes":{"POSITION":61,"NORMAL":62,"TEXCOORD_0":63},"indices":60,"material":3}],"name":"VIFS075"},{"primitives":[{"attributes":{"POSITION":65,"NORMAL":66,"TEXCOORD_0":67},"indices":64,"material":4}],"name":"VIFS073"},{"primitives":[{"attributes":{"POSITION":69,"NORMAL":70,"TEXCOORD_0":71},"indices":68,"material":5}],"name":"VIFS069"}],"accessors":[{"bufferView":0,"componentType":5123,"count":636,"type":"SCALAR","name":"accessorIndices"},{"bufferView":1,"componentType":5126,"count":636,"max":[0.000750000065,0.0009999999,0.000738606],"min":[-0.000750000065,0.0,-0.0007386059],"type":"VEC3","name":"accessorPositions"},{"bufferView":1,"byteOffset":7632,"componentType":5126,"count":636,"type":"VEC3","name":"accessorNormals"},{"bufferView":2,"componentType":5126,"count":636,"type":"VEC2","name":"accessorUVs"},{"bufferView":0,"byteOffset":1272,"componentType":5123,"count":36,"type":"SCALAR","name":"accessorIndices"},{"bufferView":1,"byteOffset":15264,"componentType":5126,"count":36,"max":[0.0202691983,0.0006349986,0.0042545],"min":[-0.0202691983,0.0,-0.0042545],"type":"VEC3","name":"accessorPositions"},{"bufferView":1,"byteOffset":15696,"componentType":5126,"count":36,"type":"VEC3","name":"accessorNormals"},{"bufferView":2,"byteOffset":5088,"componentType":5126,"count":36,"type":"VEC2","name":"accessorUVs"},{"bufferView":0,"byteOffset":1344,"componentType":5123,"count":36,"type":"SCALAR","name":"accessorIndices"},{"bufferView":1,"byteOffset":16128,"componentType":5126,"count":36,"max":[0.0201792642,0.0003047987,0.004247566],"min":[-0.0201792642,0.0,-0.004247566],"type":"VEC3","name":"accessorPositions"},{"bufferView":1,"byteOffset":16560,"componentType":5126,"count":36,"type":"VEC3","name":"accessorNormals"},{"bufferView":2,"byteOffset":5376,"componentType":5126,"count":36,"type":"VEC2","name":"accessorUVs"},{"bufferView":0,"byteOffset":1416,"componentType":5123,"count":372,"type":"SCALAR","name":"accessorIndices"},{"bufferView":1,"byteOffset":16992,"componentType":5126,"count":372,"max":[0.02032,0.009779002,0.000152398337],"min":[-0.02032,1.21183075E-09,-0.000152401524],"type":"VEC3","name":"accessorPositions"},{"bufferView":1,"byteOffset":21456,"componentType":5126,"count":372,"type":"VEC3","name":"accessorNormals"},{"bufferView":3,"componentType":5126,"count":372,"type":"VEC4","name":"accessorColors"},{"bufferView":2,"byteOffset":5664,"componentType":5126,"count":372,"type":"VEC2","name":"accessorUVs"},{"bufferView":0,"byteOffset":2160,"componentType":5123,"count":36,"type":"SCALAR","name":"accessorIndices"},{"bufferView":1,"byteOffset":25920,"componentType":5126,"count":36,"max":[0.0001524003,0.0,0.0037973],"min":[-0.0001524003,-0.00360679813,-0.0037973],"type":"VEC3","name":"accessorPositions"},{"bufferView":1,"byteOffset":26352,"componentType":5126,"count":36,"type":"VEC3","name":"accessorNormals"},{"bufferView":2,"byteOffset":8640,"componentType":5126,"count":36,"type":"VEC2","name":"accessorUVs"},{"bufferView":0,"byteOffset":2232,"componentType":5123,"count":36,"type":"SCALAR","name":"accessorIndices"},{"bufferView":1,"byteOffset":26784,"componentType":5126,"count":36,"max":[0.000152399924,0.0,0.0037973],"min":[-0.000152399924,-0.00360679813,-0.0037973],"type":"VEC3","name":"accessorPositions"},{"bufferView":1,"byteOffset":27216,"componentType":5126,"count":36,"type":"VEC3","name":"accessorNormals"},{"bufferView":2,"byteOffset":8928,"componentType":5126,"count":36,"type":"VEC2","name":"accessorUVs"},{"bufferView":0,"byteOffset":2304,"componentType":5123,"count":96,"type":"SCALAR","name":"accessorIndices"},{"bufferView":1,"byteOffset":27648,"componentType":5126,"count":96,"max":[0.00422909949,0.0,0.00190500077],"min":[-0.00422909949,0.0,-0.00190500077],"type":"VEC3","name":"accessorPositions"},{"bufferView":1,"byteOffset":28800,"componentType":5126,"count":96,"type":"VEC3","name":"accessorNormals"},{"bufferView":2,"byteOffset":9216,"componentType":5126,"count":96,"type":"VEC2","name":"accessorUVs"},{"bufferView":0,"byteOffset":2496,"componentType":5123,"count":96,"type":"SCALAR","name":"accessorIndices"},{"bufferView":1,"byteOffset":29952,"componentType":5126,"count":96,"max":[0.00422910042,0.0,0.00190499926],"min":[-0.00422910042,0.0,-0.00190499926],"type":"VEC3","name":"accessorPositions"},{"bufferView":1,"byteOffset":31104,"componentType":5126,"count":96,"type":"VEC3","name":"accessorNormals"},{"bufferView":2,"byteOffset":9984,"componentType":5126,"count":96,"type":"VEC2","name":"accessorUVs"},{"bufferView":0,"byteOffset":2688,"componentType":5123,"count":36,"type":"SCALAR","name":"accessorIndices"},{"bufferView":1,"byteOffset":32256,"componentType":5126,"count":36,"max":[0.0134279625,-2.27093934E-11,-1.89244745E-10],"min":[-7.56979E-10,-0.0046,-0.0003810002],"type":"VEC3","name":"accessorPositions"},{"bufferView":1,"byteOffset":32688,"componentType":5126,"count":36,"type":"VEC3","name":"accessorNormals"},{"bufferView":2,"byteOffset":10752,"componentType":5126,"count":36,"type":"VEC2","name":"accessorUVs"},{"bufferView":0,"byteOffset":2760,"componentType":5123,"count":36,"type":"SCALAR","name":"accessorIndices"},{"bufferView":1,"byteOffset":33120,"componentType":5126,"count":36,"max":[0.0134279625,-2.27093934E-11,-1.89244745E-10],"min":[-7.56979E-10,-0.0046,-0.0003810002],"type":"VEC3","name":"accessorPositions"},{"bufferView":1,"byteOffset":33552,"componentType":5126,"count":36,"type":"VEC3","name":"accessorNormals"},{"bufferView":2,"byteOffset":11040,"componentType":5126,"count":36,"type":"VEC2","name":"accessorUVs"},{"bufferView":0,"byteOffset":2832,"componentType":5123,"count":36,"type":"SCALAR","name":"accessorIndices"},{"bufferView":1,"byteOffset":33984,"componentType":5126,"count":36,"max":[0.0134279625,-2.27093934E-11,-1.89244745E-10],"min":[-7.56979E-10,-0.0046,-0.0003810002],"type":"VEC3","name":"accessorPositions"},{"bufferView":1,"byteOffset":34416,"componentType":5126,"count":36,"type":"VEC3","name":"accessorNormals"},{"bufferView":2,"byteOffset":11328,"componentType":5126,"count":36,"type":"VEC2","name":"accessorUVs"},{"bufferView":0,"byteOffset":2904,"componentType":5123,"count":36,"type":"SCALAR","name":"accessorIndices"},{"bufferView":1,"byteOffset":34848,"componentType":5126,"count":36,"max":[0.0202691983,0.0004,0.0042545],"min":[-0.0202691983,0.0,-0.0042545],"type":"VEC3","name":"accessorPositions"},{"bufferView":1,"byteOffset":35280,"componentType":5126,"count":36,"type":"VEC3","name":"accessorNormals"},{"bufferView":2,"byteOffset":11616,"componentType":5126,"count":36,"type":"VEC2","name":"accessorUVs"},{"bufferView":0,"byteOffset":2976,"componentType":5123,"count":4194,"type":"SCALAR","name":"accessorIndices"},{"bufferView":1,"byteOffset":35712,"componentType":5126,"count":4194,"max":[0.000864812639,-0.0041021,-0.00356379221],"min":[-0.0008648127,-0.0045339,-0.00529826758],"type":"VEC3","name":"accessorPositions"},{"bufferView":1,"byteOffset":86040,"componentType":5126,"count":4194,"type":"VEC3","name":"accessorNormals"},{"bufferView":0,"byteOffset":11364,"componentType":5123,"count":180,"type":"SCALAR","name":"accessorIndices"},{"bufferView":1,"byteOffset":136368,"componentType":5126,"count":180,"max":[0.0181227345,0.004863936,0.007336395],"min":[0.015931394,0.00267259334,0.00186817022],"type":"VEC3","name":"accessorPositions"},{"bufferView":1,"byteOffset":138528,"componentType":5126,"count":180,"type":"VEC3","name":"accessorNormals"},{"bufferView":2,"byteOffset":11904,"componentType":5126,"count":180,"type":"VEC2","name":"accessorUVs"},{"bufferView":0,"byteOffset":11724,"componentType":5123,"count":180,"type":"SCALAR","name":"accessorIndices"},{"bufferView":1,"byteOffset":140688,"componentType":5126,"count":180,"max":[-0.015931394,0.004863936,0.0073363944],"min":[-0.0181227345,0.00267259334,0.00186817022],"type":"VEC3","name":"accessorPositions"},{"bufferView":1,"byteOffset":142848,"componentType":5126,"count":180,"type":"VEC3","name":"accessorNormals"},{"bufferView":2,"byteOffset":13344,"componentType":5126,"count":180,"type":"VEC2","name":"accessorUVs"},{"bufferView":0,"byteOffset":12084,"componentType":5123,"count":180,"type":"SCALAR","name":"accessorIndices"},{"bufferView":1,"byteOffset":145008,"componentType":5126,"count":180,"max":[0.0181227345,-0.00267259334,0.007336398],"min":[0.015931394,-0.00486393645,0.00186817022],"type":"VEC3","name":"accessorPositions"},{"bufferView":1,"byteOffset":147168,"componentType":5126,"count":180,"type":"VEC3","name":"accessorNormals"},{"bufferView":2,"byteOffset":14784,"componentType":5126,"count":180,"type":"VEC2","name":"accessorUVs"},{"bufferView":0,"byteOffset":12444,"componentType":5123,"count":180,"type":"SCALAR","name":"accessorIndices"},{"bufferView":1,"byteOffset":149328,"componentType":5126,"count":180,"max":[-0.015931394,-0.00267259334,0.007336398],"min":[-0.0181227345,-0.00486393645,0.00186817022],"type":"VEC3","name":"accessorPositions"},{"bufferView":1,"byteOffset":151488,"componentType":5126,"count":180,"type":"VEC3","name":"accessorNormals"},{"bufferView":2,"byteOffset":16224,"componentType":5126,"count":180,"type":"VEC2","name":"accessorUVs"},{"bufferView":0,"byteOffset":12804,"componentType":5123,"count":126,"type":"SCALAR","name":"accessorIndices"},{"bufferView":1,"byteOffset":153648,"componentType":5126,"count":126,"max":[0.000443257071,0.0018796,0.00732916966],"min":[-0.000443257071,0.0009930824,0.00186817022],"type":"VEC3","name":"accessorPositions"},{"bufferView":1,"byteOffset":155160,"componentType":5126,"count":126,"type":"VEC3","name":"accessorNormals"},{"bufferView":2,"byteOffset":17664,"componentType":5126,"count":126,"type":"VEC2","name":"accessorUVs"}],"bufferViews":[{"buffer":0,"byteLength":13056,"name":"bufferViewScalar"},{"buffer":0,"byteOffset":13056,"byteLength":156672,"byteStride":12,"name":"bufferViewFloatVec3"},{"buffer":0,"byteOffset":169728,"byteLength":18672,"byteStride":8,"name":"bufferViewFloatVec2"},{"buffer":0,"byteOffset":188400,"byteLength":5952,"byteStride":16,"name":"bufferViewFloatVec4"}],"buffers":[{"uri":"RackGLTF5.bin","byteLength":194352}],"materials":[{"pbrMetallicRoughness":{"baseColorFactor":[0.0,0.0,0.0,1.0],"metallicFactor":0.0,"roughnessFactor":0.983},"name":"VMtl130"},{"pbrMetallicRoughness":{"baseColorFactor":[0.376,0.376,0.753,1.0],"metallicFactor":0.0,"roughnessFactor":0.983},"name":"VMtl079"},{"pbrMetallicRoughness":{"baseColorFactor":[0.376,0.376,0.753,1.0],"metallicFactor":0.0,"roughnessFactor":0.983},"name":"VMtl077"},{"pbrMetallicRoughness":{"baseColorFactor":[0.376,0.376,0.753,1.0],"metallicFactor":0.0,"roughnessFactor":0.983},"name":"VMtl075"},{"pbrMetallicRoughness":{"baseColorFactor":[0.376,0.376,0.753,1.0],"metallicFactor":0.0,"roughnessFactor":0.983},"name":"VMtl073"},{"pbrMetallicRoughness":{"baseColorFactor":[0.376,0.376,0.753,1.0],"metallicFactor":0.0,"roughnessFactor":0.983},"name":"VMtl069"}]}