{"asset":{"version":"2.0","generator":"babylon.js glTF exporter for 3dsmax 2020 v20200508.2"},"scene":0,"scenes":[{"nodes":[0,1,2,3,4,5,6,7,8,9,10,11,12,13,14,15,16,17]}],"nodes":[{"mesh":0,"translation":[-2.62949754E-07,1.36548364,-0.0006291921],"scale":[100.323471,100.323471,100.323471],"name":"Box001"},{"mesh":1,"translation":[-0.00902294,0.9730589,-0.00132490473],"scale":[100.323471,100.323471,100.323471],"name":"Box002"},{"mesh":2,"translation":[0.671046734,1.36548364,0.0350458622],"scale":[100.323471,100.323471,100.323471],"name":"Box006"},{"mesh":3,"translation":[-0.6710477,1.36503959,0.0350458622],"scale":[100.323471,100.323471,100.323471],"name":"Box007"},{"mesh":4,"translation":[2.0283792,0.781942368,-0.00317752874],"rotation":[-0.5,-0.5,0.5,-0.5],"scale":[100.323471,100.323471,100.323471],"name":"Plane001"},{"mesh":5,"translation":[-2.0283792,0.781942368,-0.00317752874],"rotation":[0.5,-0.5,0.50000006,0.49999994],"scale":[100.323471,100.323471,100.323471],"name":"Plane002"},{"mesh":6,"translation":[-2.030927,1.0240227,0.4644205],"rotation":[8.146033E-08,0.0,0.0,1.0],"scale":[100.323471,100.323471,100.323471],"name":"Box008"},{"mesh":7,"translation":[-0.6735954,1.0240227,0.4644205],"rotation":[8.146033E-08,0.0,0.0,1.0],"scale":[100.323471,100.323471,100.323471],"name":"Box009"},{"mesh":8,"translation":[0.6837873,1.02393937,0.4644205],"rotation":[8.146033E-08,0.0,0.0,1.0],"scale":[100.323471,100.323471,100.323471],"name":"Box010"},{"mesh":9,"translation":[-2.62949754E-07,0.552419245,-0.000629344],"scale":[100.323471,100.323471,100.323471],"name":"Box011"},{"mesh":10,"translation":[-2.62949754E-07,0.740024269,-0.0006293065],"rotation":[0.7071068,0.0,0.0,0.7071067],"scale":[100.323471,100.323471,100.323471],"name":"VIFS130"},{"mesh":11,"translation":[-2.62949754E-07,0.740024269,0.0006149399],"rotation":[0.7071068,0.0,0.0,0.7071067],"scale":[100.323471,100.323471,100.323471],"name":"VIFS079"},{"mesh":12,"translation":[-2.62949754E-07,0.740024269,-0.0006293065],"rotation":[0.7071068,0.0,0.0,0.7071067],"scale":[100.323471,100.323471,100.323471],"name":"VIFS077"},{"mesh":13,"translation":[-2.62949754E-07,0.740024269,-0.0006293065],"rotation":[0.7071068,0.0,0.0,0.7071067],"scale":[100.323471,100.323471,100.323471],"name":"VIFS075"},{"mesh":14,"translation":[-2.62949754E-07,0.740024269,-0.0006293065],"rotation":[0.7071068,0.0,0.0,0.7071067],"scale":[100.323471,100.323471,100.323471],"name":"VIFS073"},{"mesh":15,"translation":[-2.62949754E-07,0.740024269,-0.0006293065],"rotation":[0.7071068,0.0,0.0,0.7071067],"scale":[100.323471,100.323471,100.323471],"name":"VIFS069"},{"mesh":16,"translation":[-1.42486632,0.83615464,-1.054769],"scale":[2.54,2.54,2.54],"name":"Box004"},{"name":"Default light"}],"meshes":[{"primitives":[{"attributes":{"POSITION":1,"NORMAL":2,"TEXCOORD_0":3},"indices":0,"material":0}],"name":"Box001"},{"primitives":[{"attributes":{"POSITION":5,"NORMAL":6,"TEXCOORD_0":7},"indices":4,"material":0}],"name":"Box002"},{"primitives":[{"attributes":{"POSITION":9,"NORMAL":10,"TEXCOORD_0":11},"indices":8,"material":0}],"name":"Box006"},{"primitives":[{"attributes":{"POSITION":13,"NORMAL":14,"TEXCOORD_0":15},"indices":12,"material":0}],"name":"Box007"},{"primitives":[{"attributes":{"POSITION":17,"NORMAL":18,"TEXCOORD_0":19},"indices":16,"material":0}],"name":"Plane001"},{"primitives":[{"attributes":{"POSITION":21,"NORMAL":22,"TEXCOORD_0":23},"indices":20,"material":0}],"name":"Plane002"},{"primitives":[{"attributes":{"POSITION":25,"NORMAL":26,"TEXCOORD_0":27},"indices":24,"material":0}],"name":"Box008"},{"primitives":[{"attributes":{"POSITION":29,"NORMAL":30,"TEXCOORD_0":31},"indices":28,"material":0}],"name":"Box009"},{"primitives":[{"attributes":{"POSITION":33,"NORMAL":34,"TEXCOORD_0":35},"indices":32,"material":0}],"name":"Box010"},{"primitives":[{"attributes":{"POSITION":37,"NORMAL":38,"TEXCOORD_0":39},"indices":36,"material":0}],"name":"Box011"},{"primitives":[{"attributes":{"POSITION":41,"NORMAL":42},"indices":40,"material":1}],"name":"VIFS130"},{"primitives":[{"attributes":{"POSITION":44,"NORMAL":45,"TEXCOORD_0":46},"indices":43,"material":2}],"name":"VIFS079"},{"primitives":[{"attributes":{"POSITION":48,"NORMAL":49,"TEXCOORD_0":50},"indices":47,"material":2}],"name":"VIFS077"},{"primitives":[{"attributes":{"POSITION":52,"NORMAL":53,"TEXCOORD_0":54},"indices":51,"material":2}],"name":"VIFS075"},{"primitives":[{"attributes":{"POSITION":56,"NORMAL":57,"TEXCOORD_0":58},"indices":55,"material":2}],"name":"VIFS073"},{"primitives":[{"attributes":{"POSITION":60,"NORMAL":61,"TEXCOORD_0":62},"indices":59,"material":2}],"name":"VIFS069"},{"primitives":[{"attributes":{"POSITION":64,"NORMAL":65,"COLOR_0":66,"TEXCOORD_0":67},"indices":63,"material":0}],"name":"Box004"}],"accessors":[{"bufferView":0,"componentType":5123,"count":36,"type":"SCALAR","name":"accessorIndices"},{"bufferView":1,"componentType":5126,"count":36,"max":[0.0202691983,0.0006349986,0.0042545],"min":[-0.0202691983,0.0,-0.0042545],"type":"VEC3","name":"accessorPositions"},{"bufferView":1,"byteOffset":432,"componentType":5126,"count":36,"type":"VEC3","name":"accessorNormals"},{"bufferView":2,"componentType":5126,"count":36,"type":"VEC2","name":"accessorUVs"},{"bufferView":0,"byteOffset":72,"componentType":5123,"count":36,"type":"SCALAR","name":"accessorIndices"},{"bufferView":1,"byteOffset":864,"componentType":5126,"count":36,"max":[0.0201792642,0.0003047987,0.004247566],"min":[-0.0201792642,0.0,-0.004247566],"type":"VEC3","name":"accessorPositions"},{"bufferView":1,"byteOffset":1296,"componentType":5126,"count":36,"type":"VEC3","name":"accessorNormals"},{"bufferView":2,"byteOffset":288,"componentType":5126,"count":36,"type":"VEC2","name":"accessorUVs"},{"bufferView":0,"byteOffset":144,"componentType":5123,"count":36,"type":"SCALAR","name":"accessorIndices"},{"bufferView":1,"byteOffset":1728,"componentType":5126,"count":36,"max":[0.0001524003,0.0,0.0037973],"min":[-0.0001524003,-0.00360679813,-0.0037973],"type":"VEC3","name":"accessorPositions"},{"bufferView":1,"byteOffset":2160,"componentType":5126,"count":36,"type":"VEC3","name":"accessorNormals"},{"bufferView":2,"byteOffset":576,"componentType":5126,"count":36,"type":"VEC2","name":"accessorUVs"},{"bufferView":0,"byteOffset":216,"componentType":5123,"count":36,"type":"SCALAR","name":"accessorIndices"},{"bufferView":1,"byteOffset":2592,"componentType":5126,"count":36,"max":[0.000152399924,0.0,0.0037973],"min":[-0.000152399924,-0.00360679813,-0.0037973],"type":"VEC3","name":"accessorPositions"},{"bufferView":1,"byteOffset":3024,"componentType":5126,"count":36,"type":"VEC3","name":"accessorNormals"},{"bufferView":2,"byteOffset":864,"componentType":5126,"count":36,"type":"VEC2","name":"accessorUVs"},{"bufferView":0,"byteOffset":288,"componentType":5123,"count":96,"type":"SCALAR","name":"accessorIndices"},{"bufferView":1,"byteOffset":3456,"componentType":5126,"count":96,"max":[0.00422909949,0.0,0.00190500077],"min":[-0.00422909949,0.0,-0.00190500077],"type":"VEC3","name":"accessorPositions"},{"bufferView":1,"byteOffset":4608,"componentType":5126,"count":96,"type":"VEC3","name":"accessorNormals"},{"bufferView":2,"byteOffset":1152,"componentType":5126,"count":96,"type":"VEC2","name":"accessorUVs"},{"bufferView":0,"byteOffset":480,"componentType":5123,"count":96,"type":"SCALAR","name":"accessorIndices"},{"bufferView":1,"byteOffset":5760,"componentType":5126,"count":96,"max":[0.00422910042,0.0,0.00190499926],"min":[-0.00422910042,0.0,-0.00190499926],"type":"VEC3","name":"accessorPositions"},{"bufferView":1,"byteOffset":6912,"componentType":5126,"count":96,"type":"VEC3","name":"accessorNormals"},{"bufferView":2,"byteOffset":1920,"componentType":5126,"count":96,"type":"VEC2","name":"accessorUVs"},{"bufferView":0,"byteOffset":672,"componentType":5123,"count":36,"type":"SCALAR","name":"accessorIndices"},{"bufferView":1,"byteOffset":8064,"componentType":5126,"count":36,"max":[0.0134279625,-2.27093934E-11,-1.89244745E-10],"min":[-7.56979E-10,-0.0046,-0.0003810002],"type":"VEC3","name":"accessorPositions"},{"bufferView":1,"byteOffset":8496,"componentType":5126,"count":36,"type":"VEC3","name":"accessorNormals"},{"bufferView":2,"byteOffset":2688,"componentType":5126,"count":36,"type":"VEC2","name":"accessorUVs"},{"bufferView":0,"byteOffset":744,"componentType":5123,"count":36,"type":"SCALAR","name":"accessorIndices"},{"bufferView":1,"byteOffset":8928,"componentType":5126,"count":36,"max":[0.0134279625,-2.27093934E-11,-1.89244745E-10],"min":[-7.56979E-10,-0.0046,-0.0003810002],"type":"VEC3","name":"accessorPositions"},{"bufferView":1,"byteOffset":9360,"componentType":5126,"count":36,"type":"VEC3","name":"accessorNormals"},{"bufferView":2,"byteOffset":2976,"componentType":5126,"count":36,"type":"VEC2","name":"accessorUVs"},{"bufferView":0,"byteOffset":816,"componentType":5123,"count":36,"type":"SCALAR","name":"accessorIndices"},{"bufferView":1,"byteOffset":9792,"componentType":5126,"count":36,"max":[0.0134279625,-2.27093934E-11,-1.89244745E-10],"min":[-7.56979E-10,-0.0046,-0.0003810002],"type":"VEC3","name":"accessorPositions"},{"bufferView":1,"byteOffset":10224,"componentType":5126,"count":36,"type":"VEC3","name":"accessorNormals"},{"bufferView":2,"byteOffset":3264,"componentType":5126,"count":36,"type":"VEC2","name":"accessorUVs"},{"bufferView":0,"byteOffset":888,"componentType":5123,"count":36,"type":"SCALAR","name":"accessorIndices"},{"bufferView":1,"byteOffset":10656,"componentType":5126,"count":36,"max":[0.0202691983,0.0004,0.0042545],"min":[-0.0202691983,0.0,-0.0042545],"type":"VEC3","name":"accessorPositions"},{"bufferView":1,"byteOffset":11088,"componentType":5126,"count":36,"type":"VEC3","name":"accessorNormals"},{"bufferView":2,"byteOffset":3552,"componentType":5126,"count":36,"type":"VEC2","name":"accessorUVs"},{"bufferView":0,"byteOffset":960,"componentType":5123,"count":4194,"type":"SCALAR","name":"accessorIndices"},{"bufferView":1,"byteOffset":11520,"componentType":5126,"count":4194,"max":[0.000864812639,-0.0041021,-0.00356379221],"min":[-0.0008648127,-0.0045339,-0.00529826758],"type":"VEC3","name":"accessorPositions"},{"bufferView":1,"byteOffset":61848,"componentType":5126,"count":4194,"type":"VEC3","name":"accessorNormals"},{"bufferView":0,"byteOffset":9348,"componentType":5123,"count":180,"type":"SCALAR","name":"accessorIndices"},{"bufferView":1,"byteOffset":112176,"componentType":5126,"count":180,"max":[0.0181227345,0.004863936,0.007336395],"min":[0.015931394,0.00267259334,0.00186817022],"type":"VEC3","name":"accessorPositions"},{"bufferView":1,"byteOffset":114336,"componentType":5126,"count":180,"type":"VEC3","name":"accessorNormals"},{"bufferView":2,"byteOffset":3840,"componentType":5126,"count":180,"type":"VEC2","name":"accessorUVs"},{"bufferView":0,"byteOffset":9708,"componentType":5123,"count":180,"type":"SCALAR","name":"accessorIndices"},{"bufferView":1,"byteOffset":116496,"componentType":5126,"count":180,"max":[-0.015931394,0.004863936,0.0073363944],"min":[-0.0181227345,0.00267259334,0.00186817022],"type":"VEC3","name":"accessorPositions"},{"bufferView":1,"byteOffset":118656,"componentType":5126,"count":180,"type":"VEC3","name":"accessorNormals"},{"bufferView":2,"byteOffset":5280,"componentType":5126,"count":180,"type":"VEC2","name":"accessorUVs"},{"bufferView":0,"byteOffset":10068,"componentType":5123,"count":180,"type":"SCALAR","name":"accessorIndices"},{"bufferView":1,"byteOffset":120816,"componentType":5126,"count":180,"max":[0.0181227345,-0.00267259334,0.007336398],"min":[0.015931394,-0.00486393645,0.00186817022],"type":"VEC3","name":"accessorPositions"},{"bufferView":1,"byteOffset":122976,"componentType":5126,"count":180,"type":"VEC3","name":"accessorNormals"},{"bufferView":2,"byteOffset":6720,"componentType":5126,"count":180,"type":"VEC2","name":"accessorUVs"},{"bufferView":0,"byteOffset":10428,"componentType":5123,"count":180,"type":"SCALAR","name":"accessorIndices"},{"bufferView":1,"byteOffset":125136,"componentType":5126,"count":180,"max":[-0.015931394,-0.00267259334,0.007336398],"min":[-0.0181227345,-0.00486393645,0.00186817022],"type":"VEC3","name":"accessorPositions"},{"bufferView":1,"byteOffset":127296,"componentType":5126,"count":180,"type":"VEC3","name":"accessorNormals"},{"bufferView":2,"byteOffset":8160,"componentType":5126,"count":180,"type":"VEC2","name":"accessorUVs"},{"bufferView":0,"byteOffset":10788,"componentType":5123,"count":126,"type":"SCALAR","name":"accessorIndices"},{"bufferView":1,"byteOffset":129456,"componentType":5126,"count":126,"max":[0.000443257071,0.0018796,0.00732916966],"min":[-0.000443257071,0.0009930824,0.00186817022],"type":"VEC3","name":"accessorPositions"},{"bufferView":1,"byteOffset":130968,"componentType":5126,"count":126,"type":"VEC3","name":"accessorNormals"},{"bufferView":2,"byteOffset":9600,"componentType":5126,"count":126,"type":"VEC2","name":"accessorUVs"},{"bufferView":0,"byteOffset":11040,"componentType":5123,"count":264,"type":"SCALAR","name":"accessorIndices"},{"bufferView":1,"byteOffset":132480,"componentType":5126,"count":264,"max":[1.36155212,0.254000038,0.246973559],"min":[-0.241616935,-0.132245481,0.2349348],"type":"VEC3","name":"accessorPositions"},{"bufferView":1,"byteOffset":135648,"componentType":5126,"count":264,"type":"VEC3","name":"accessorNormals"},{"bufferView":3,"componentType":5126,"count":264,"type":"VEC4","name":"accessorColors"},{"bufferView":2,"byteOffset":10608,"componentType":5126,"count":264,"type":"VEC2","name":"accessorUVs"}],"bufferViews":[{"buffer":0,"byteLength":11568,"name":"bufferViewScalar"},{"buffer":0,"byteOffset":11568,"byteLength":138816,"byteStride":12,"name":"bufferViewFloatVec3"},{"buffer":0,"byteOffset":150384,"byteLength":12720,"byteStride":8,"name":"bufferViewFloatVec2"},{"buffer":0,"byteOffset":163104,"byteLength":4224,"byteStride":16,"name":"bufferViewFloatVec4"}],"buffers":[{"uri":"RackGLTF8.bin","byteLength":167328}],"materials":[{"pbrMetallicRoughness":{"baseColorFactor":[0.5,0.5,0.5,1.0],"metallicFactor":0.0,"roughnessFactor":0.5},"name":"MDF Branco"},{"pbrMetallicRoughness":{"baseColorFactor":[0.0,0.0,0.0,1.0],"metallicFactor":0.0,"roughnessFactor":0.0},"name":"VMtl130"},{"pbrMetallicRoughness":{"baseColorTexture":{"index":0},"metallicFactor":0.0,"roughnessFactor":0.5},"name":"02 - Default"}],"textures":[{"sampler":0,"source":0,"name":"Madeira-Pe.jpg"}],"images":[{"uri":"./Madeira-Pe.jpg"}],"samplers":[{"magFilter":9729,"minFilter":9987}]}