{"asset":{"version":"2.0","generator":"babylon.js glTF exporter for 3dsmax 2020 v20200508.2"},"scene":0,"scenes":[{"nodes":[0,18]}],"nodes":[{"children":[1,2,3,4,5,6,7,8,9,10,11,12,13,14,15,16,17],"translation":[0.0,6.346701E-06,2.775552E-13],"scale":[0.001,0.001,0.001],"name":"Group001"},{"mesh":0,"translation":[0.0,1.35636,-0.000619881263],"scale":[99.99999,99.99999,99.99999],"name":"Box001"},{"mesh":1,"translation":[-0.008993591,0.9652,-0.00131334958],"scale":[99.99999,99.99999,99.99999],"name":"Box002"},{"mesh":2,"translation":[0.0,0.493916929,-0.441310018],"scale":[99.99999,99.99999,99.99999],"name":"Box003"},{"mesh":3,"translation":[0.668883562,1.35635972,0.0349401161],"scale":[99.99999,99.99999,99.99999],"name":"Box006"},{"mesh":4,"translation":[-0.668883562,1.35591686,0.0349401161],"scale":[99.99999,99.99999,99.99999],"name":"Box007"},{"mesh":5,"translation":[2.02183986,0.774699867,-0.00315999938],"rotation":[-0.5,-0.5,0.5,-0.5],"scale":[99.99999,99.99999,99.99999],"name":"Plane001"},{"mesh":6,"translation":[-2.02183986,0.774699867,-0.00315999938],"rotation":[0.5,-0.5,0.50000006,0.49999994],"scale":[99.99999,99.99999,99.99999],"name":"Plane002"},{"mesh":7,"translation":[-2.02438,1.01599979,0.462930083],"rotation":[8.146034E-08,0.0,0.0,1.0],"scale":[99.99999,99.99999,99.99999],"name":"Box008"},{"mesh":8,"translation":[-0.6714235,1.01599979,0.462930083],"rotation":[8.146034E-08,0.0,0.0,1.0],"scale":[99.99999,99.99999,99.99999],"name":"Box009"},{"mesh":9,"translation":[0.6815837,1.01591706,0.462930083],"rotation":[8.146034E-08,0.0,0.0,1.0],"scale":[99.99999,99.99999,99.99999],"name":"Box010"},{"mesh":10,"translation":[0.0,0.5459169,-0.000620032661],"scale":[99.99999,99.99999,99.99999],"name":"Box011"},{"mesh":11,"translation":[0.0,0.732916951,-0.000619994767],"rotation":[0.7071068,0.0,0.0,0.7071067],"scale":[99.99999,99.99999,99.99999],"name":"VIFS130"},{"mesh":12,"translation":[0.0,0.732916951,0.000620239647],"rotation":[0.7071068,0.0,0.0,0.7071067],"scale":[99.99999,99.99999,99.99999],"name":"VIFS079"},{"mesh":13,"translation":[0.0,0.732916951,-0.000619994767],"rotation":[0.7071068,0.0,0.0,0.7071067],"scale":[99.99999,99.99999,99.99999],"name":"VIFS077"},{"mesh":14,"translation":[0.0,0.732916951,-0.000619994767],"rotation":[0.7071068,0.0,0.0,0.7071067],"scale":[99.99999,99.99999,99.99999],"name":"VIFS075"},{"mesh":15,"translation":[0.0,0.732916951,-0.000619994767],"rotation":[0.7071068,0.0,0.0,0.7071067],"scale":[99.99999,99.99999,99.99999],"name":"VIFS073"},{"mesh":16,"translation":[0.0,0.732916951,-0.000619994767],"rotation":[0.7071068,0.0,0.0,0.7071067],"scale":[99.99999,99.99999,99.99999],"name":"VIFS069"},{"name":"Default light"}],"meshes":[{"primitives":[{"attributes":{"POSITION":1,"NORMAL":2,"TEXCOORD_0":3},"indices":0}],"name":"Box001"},{"primitives":[{"attributes":{"POSITION":5,"NORMAL":6,"TEXCOORD_0":7},"indices":4}],"name":"Box002"},{"primitives":[{"attributes":{"POSITION":9,"NORMAL":10,"COLOR_0":11,"TEXCOORD_0":12},"indices":8}],"name":"Box003"},{"primitives":[{"attributes":{"POSITION":14,"NORMAL":15,"TEXCOORD_0":16},"indices":13}],"name":"Box006"},{"primitives":[{"attributes":{"POSITION":18,"NORMAL":19,"TEXCOORD_0":20},"indices":17}],"name":"Box007"},{"primitives":[{"attributes":{"POSITION":22,"NORMAL":23,"TEXCOORD_0":24},"indices":21}],"name":"Plane001"},{"primitives":[{"attributes":{"POSITION":26,"NORMAL":27,"TEXCOORD_0":28},"indices":25}],"name":"Plane002"},{"primitives":[{"attributes":{"POSITION":30,"NORMAL":31,"TEXCOORD_0":32},"indices":29}],"name":"Box008"},{"primitives":[{"attributes":{"POSITION":34,"NORMAL":35,"TEXCOORD_0":36},"indices":33}],"name":"Box009"},{"primitives":[{"attributes":{"POSITION":38,"NORMAL":39,"TEXCOORD_0":40},"indices":37}],"name":"Box010"},{"primitives":[{"attributes":{"POSITION":42,"NORMAL":43,"TEXCOORD_0":44},"indices":41}],"name":"Box011"},{"primitives":[{"attributes":{"POSITION":46,"NORMAL":47},"indices":45,"material":0}],"name":"VIFS130"},{"primitives":[{"attributes":{"POSITION":49,"NORMAL":50,"TEXCOORD_0":51},"indices":48,"material":1}],"name":"VIFS079"},{"primitives":[{"attributes":{"POSITION":53,"NORMAL":54,"TEXCOORD_0":55},"indices":52,"material":2}],"name":"VIFS077"},{"primitives":[{"attributes":{"POSITION":57,"NORMAL":58,"TEXCOORD_0":59},"indices":56,"material":3}],"name":"VIFS075"},{"primitives":[{"attributes":{"POSITION":61,"NORMAL":62,"TEXCOORD_0":63},"indices":60,"material":4}],"name":"VIFS073"},{"primitives":[{"attributes":{"POSITION":65,"NORMAL":66,"TEXCOORD_0":67},"indices":64,"material":5}],"name":"VIFS069"}],"accessors":[{"bufferView":0,"componentType":5123,"count":36,"type":"SCALAR","name":"accessorIndices"},{"bufferView":1,"componentType":5126,"count":36,"max":[0.0202691983,0.0006349986,0.0042545],"min":[-0.0202691983,0.0,-0.0042545],"type":"VEC3","name":"accessorPositions"},{"bufferView":1,"byteOffset":432,"componentType":5126,"count":36,"type":"VEC3","name":"accessorNormals"},{"bufferView":2,"componentType":5126,"count":36,"type":"VEC2","name":"accessorUVs"},{"bufferView":0,"byteOffset":72,"componentType":5123,"count":36,"type":"SCALAR","name":"accessorIndices"},{"bufferView":1,"byteOffset":864,"componentType":5126,"count":36,"max":[0.0201792642,0.0003047987,0.004247566],"min":[-0.0201792642,0.0,-0.004247566],"type":"VEC3","name":"accessorPositions"},{"bufferView":1,"byteOffset":1296,"componentType":5126,"count":36,"type":"VEC3","name":"accessorNormals"},{"bufferView":2,"byteOffset":288,"componentType":5126,"count":36,"type":"VEC2","name":"accessorUVs"},{"bufferView":0,"byteOffset":144,"componentType":5123,"count":372,"type":"SCALAR","name":"accessorIndices"},{"bufferView":1,"byteOffset":1728,"componentType":5126,"count":372,"max":[0.02032,0.009779002,0.000152398337],"min":[-0.02032,1.21183075E-09,-0.000152401524],"type":"VEC3","name":"accessorPositions"},{"bufferView":1,"byteOffset":6192,"componentType":5126,"count":372,"type":"VEC3","name":"accessorNormals"},{"bufferView":3,"componentType":5126,"count":372,"type":"VEC4","name":"accessorColors"},{"bufferView":2,"byteOffset":576,"componentType":5126,"count":372,"type":"VEC2","name":"accessorUVs"},{"bufferView":0,"byteOffset":888,"componentType":5123,"count":36,"type":"SCALAR","name":"accessorIndices"},{"bufferView":1,"byteOffset":10656,"componentType":5126,"count":36,"max":[0.0001524003,0.0,0.0037973],"min":[-0.0001524003,-0.00360679813,-0.0037973],"type":"VEC3","name":"accessorPositions"},{"bufferView":1,"byteOffset":11088,"componentType":5126,"count":36,"type":"VEC3","name":"accessorNormals"},{"bufferView":2,"byteOffset":3552,"componentType":5126,"count":36,"type":"VEC2","name":"accessorUVs"},{"bufferView":0,"byteOffset":960,"componentType":5123,"count":36,"type":"SCALAR","name":"accessorIndices"},{"bufferView":1,"byteOffset":11520,"componentType":5126,"count":36,"max":[0.000152399924,0.0,0.0037973],"min":[-0.000152399924,-0.00360679813,-0.0037973],"type":"VEC3","name":"accessorPositions"},{"bufferView":1,"byteOffset":11952,"componentType":5126,"count":36,"type":"VEC3","name":"accessorNormals"},{"bufferView":2,"byteOffset":3840,"componentType":5126,"count":36,"type":"VEC2","name":"accessorUVs"},{"bufferView":0,"byteOffset":1032,"componentType":5123,"count":96,"type":"SCALAR","name":"accessorIndices"},{"bufferView":1,"byteOffset":12384,"componentType":5126,"count":96,"max":[0.00422909949,0.0,0.00190500077],"min":[-0.00422909949,0.0,-0.00190500077],"type":"VEC3","name":"accessorPositions"},{"bufferView":1,"byteOffset":13536,"componentType":5126,"count":96,"type":"VEC3","name":"accessorNormals"},{"bufferView":2,"byteOffset":4128,"componentType":5126,"count":96,"type":"VEC2","name":"accessorUVs"},{"bufferView":0,"byteOffset":1224,"componentType":5123,"count":96,"type":"SCALAR","name":"accessorIndices"},{"bufferView":1,"byteOffset":14688,"componentType":5126,"count":96,"max":[0.00422910042,0.0,0.00190499926],"min":[-0.00422910042,0.0,-0.00190499926],"type":"VEC3","name":"accessorPositions"},{"bufferView":1,"byteOffset":15840,"componentType":5126,"count":96,"type":"VEC3","name":"accessorNormals"},{"bufferView":2,"byteOffset":4896,"componentType":5126,"count":96,"type":"VEC2","name":"accessorUVs"},{"bufferView":0,"byteOffset":1416,"componentType":5123,"count":36,"type":"SCALAR","name":"accessorIndices"},{"bufferView":1,"byteOffset":16992,"componentType":5126,"count":36,"max":[0.0134279625,-2.27093934E-11,-1.89244745E-10],"min":[-7.56979E-10,-0.0046,-0.0003810002],"type":"VEC3","name":"accessorPositions"},{"bufferView":1,"byteOffset":17424,"componentType":5126,"count":36,"type":"VEC3","name":"accessorNormals"},{"bufferView":2,"byteOffset":5664,"componentType":5126,"count":36,"type":"VEC2","name":"accessorUVs"},{"bufferView":0,"byteOffset":1488,"componentType":5123,"count":36,"type":"SCALAR","name":"accessorIndices"},{"bufferView":1,"byteOffset":17856,"componentType":5126,"count":36,"max":[0.0134279625,-2.27093934E-11,-1.89244745E-10],"min":[-7.56979E-10,-0.0046,-0.0003810002],"type":"VEC3","name":"accessorPositions"},{"bufferView":1,"byteOffset":18288,"componentType":5126,"count":36,"type":"VEC3","name":"accessorNormals"},{"bufferView":2,"byteOffset":5952,"componentType":5126,"count":36,"type":"VEC2","name":"accessorUVs"},{"bufferView":0,"byteOffset":1560,"componentType":5123,"count":36,"type":"SCALAR","name":"accessorIndices"},{"bufferView":1,"byteOffset":18720,"componentType":5126,"count":36,"max":[0.0134279625,-2.27093934E-11,-1.89244745E-10],"min":[-7.56979E-10,-0.0046,-0.0003810002],"type":"VEC3","name":"accessorPositions"},{"bufferView":1,"byteOffset":19152,"componentType":5126,"count":36,"type":"VEC3","name":"accessorNormals"},{"bufferView":2,"byteOffset":6240,"componentType":5126,"count":36,"type":"VEC2","name":"accessorUVs"},{"bufferView":0,"byteOffset":1632,"componentType":5123,"count":36,"type":"SCALAR","name":"accessorIndices"},{"bufferView":1,"byteOffset":19584,"componentType":5126,"count":36,"max":[0.0202691983,0.0004,0.0042545],"min":[-0.0202691983,0.0,-0.0042545],"type":"VEC3","name":"accessorPositions"},{"bufferView":1,"byteOffset":20016,"componentType":5126,"count":36,"type":"VEC3","name":"accessorNormals"},{"bufferView":2,"byteOffset":6528,"componentType":5126,"count":36,"type":"VEC2","name":"accessorUVs"},{"bufferView":0,"byteOffset":1704,"componentType":5123,"count":4194,"type":"SCALAR","name":"accessorIndices"},{"bufferView":1,"byteOffset":20448,"componentType":5126,"count":4194,"max":[0.000864812639,-0.0041021,-0.00356379221],"min":[-0.0008648127,-0.0045339,-0.00529826758],"type":"VEC3","name":"accessorPositions"},{"bufferView":1,"byteOffset":70776,"componentType":5126,"count":4194,"type":"VEC3","name":"accessorNormals"},{"bufferView":0,"byteOffset":10092,"componentType":5123,"count":180,"type":"SCALAR","name":"accessorIndices"},{"bufferView":1,"byteOffset":121104,"componentType":5126,"count":180,"max":[0.0181227345,0.004863936,0.007336395],"min":[0.015931394,0.00267259334,0.00186817022],"type":"VEC3","name":"accessorPositions"},{"bufferView":1,"byteOffset":123264,"componentType":5126,"count":180,"type":"VEC3","name":"accessorNormals"},{"bufferView":2,"byteOffset":6816,"componentType":5126,"count":180,"type":"VEC2","name":"accessorUVs"},{"bufferView":0,"byteOffset":10452,"componentType":5123,"count":180,"type":"SCALAR","name":"accessorIndices"},{"bufferView":1,"byteOffset":125424,"componentType":5126,"count":180,"max":[-0.015931394,0.004863936,0.0073363944],"min":[-0.0181227345,0.00267259334,0.00186817022],"type":"VEC3","name":"accessorPositions"},{"bufferView":1,"byteOffset":127584,"componentType":5126,"count":180,"type":"VEC3","name":"accessorNormals"},{"bufferView":2,"byteOffset":8256,"componentType":5126,"count":180,"type":"VEC2","name":"accessorUVs"},{"bufferView":0,"byteOffset":10812,"componentType":5123,"count":180,"type":"SCALAR","name":"accessorIndices"},{"bufferView":1,"byteOffset":129744,"componentType":5126,"count":180,"max":[0.0181227345,-0.00267259334,0.007336398],"min":[0.015931394,-0.00486393645,0.00186817022],"type":"VEC3","name":"accessorPositions"},{"bufferView":1,"byteOffset":131904,"componentType":5126,"count":180,"type":"VEC3","name":"accessorNormals"},{"bufferView":2,"byteOffset":9696,"componentType":5126,"count":180,"type":"VEC2","name":"accessorUVs"},{"bufferView":0,"byteOffset":11172,"componentType":5123,"count":180,"type":"SCALAR","name":"accessorIndices"},{"bufferView":1,"byteOffset":134064,"componentType":5126,"count":180,"max":[-0.015931394,-0.00267259334,0.007336398],"min":[-0.0181227345,-0.00486393645,0.00186817022],"type":"VEC3","name":"accessorPositions"},{"bufferView":1,"byteOffset":136224,"componentType":5126,"count":180,"type":"VEC3","name":"accessorNormals"},{"bufferView":2,"byteOffset":11136,"componentType":5126,"count":180,"type":"VEC2","name":"accessorUVs"},{"bufferView":0,"byteOffset":11532,"componentType":5123,"count":126,"type":"SCALAR","name":"accessorIndices"},{"bufferView":1,"byteOffset":138384,"componentType":5126,"count":126,"max":[0.000443257071,0.0018796,0.00732916966],"min":[-0.000443257071,0.0009930824,0.00186817022],"type":"VEC3","name":"accessorPositions"},{"bufferView":1,"byteOffset":139896,"componentType":5126,"count":126,"type":"VEC3","name":"accessorNormals"},{"bufferView":2,"byteOffset":12576,"componentType":5126,"count":126,"type":"VEC2","name":"accessorUVs"}],"bufferViews":[{"buffer":0,"byteLength":11784,"name":"bufferViewScalar"},{"buffer":0,"byteOffset":11784,"byteLength":141408,"byteStride":12,"name":"bufferViewFloatVec3"},{"buffer":0,"byteOffset":153192,"byteLength":13584,"byteStride":8,"name":"bufferViewFloatVec2"},{"buffer":0,"byteOffset":166776,"byteLength":5952,"byteStride":16,"name":"bufferViewFloatVec4"}],"buffers":[{"uri":"Rack-GLTF.bin","byteLength":172728}],"materials":[{"pbrMetallicRoughness":{"baseColorFactor":[0.0,0.0,0.0,1.0],"metallicFactor":0.0,"roughnessFactor":0.983},"name":"VMtl130"},{"pbrMetallicRoughness":{"baseColorFactor":[0.376,0.376,0.753,1.0],"metallicFactor":0.0,"roughnessFactor":0.983},"name":"VMtl079"},{"pbrMetallicRoughness":{"baseColorFactor":[0.376,0.376,0.753,1.0],"metallicFactor":0.0,"roughnessFactor":0.983},"name":"VMtl077"},{"pbrMetallicRoughness":{"baseColorFactor":[0.376,0.376,0.753,1.0],"metallicFactor":0.0,"roughnessFactor":0.983},"name":"VMtl075"},{"pbrMetallicRoughness":{"baseColorFactor":[0.376,0.376,0.753,1.0],"metallicFactor":0.0,"roughnessFactor":0.983},"name":"VMtl073"},{"pbrMetallicRoughness":{"baseColorFactor":[0.376,0.376,0.753,1.0],"metallicFactor":0.0,"roughnessFactor":0.983},"name":"VMtl069"}]}