{"asset":{"version":"2.0","generator":"babylon.js glTF exporter for 3dsmax 2020 v20200508.2"},"scene":0,"scenes":[{"nodes":[0,3,4,5,6,7,8,9,10,11,12,13,14,15,16,17,24]}],"nodes":[{"children":[1,2],"translation":[-0.477133334,0.346794,0.187514916],"name":"Porta"},{"mesh":0,"translation":[0.280500144,-0.0159896854,-0.121499576],"rotation":[0.7071068,0.0,0.0,0.7071067],"scale":[1000.0,1000.0,1000.0],"name":"Plstico Redondo"},{"mesh":1,"translation":[0.0,0.160999954,0.0005004883],"name":"Box017"},{"mesh":2,"translation":[0.0,0.522348046,-0.192500055],"name":"Box018"},{"mesh":3,"translation":[0.379631728,0.503847957,0.1719188],"rotation":[2.08616257E-07,0.0,0.0,1.0],"name":"Box009"},{"mesh":4,"translation":[0.379631728,0.190847889,0.171918765],"rotation":[0.0,-1.62920685E-07,0.0,1.0],"scale":[1.0,-1.0,1.0],"name":"Box008"},{"mesh":5,"translation":[0.380146474,0.347347975,-0.159022585],"rotation":[-0.5,-0.5,0.5,-0.5],"name":"Cylinder004"},{"mesh":5,"translation":[-0.191999987,0.347347975,-0.159022585],"rotation":[-0.5,-0.5,0.5,-0.5],"name":"Cylinder003"},{"mesh":5,"translation":[0.380146474,0.347347945,0.0650000051],"rotation":[-0.5,-0.5,0.5,-0.5],"name":"Cylinder002"},{"mesh":5,"translation":[-0.192,0.347347945,0.0650000051],"rotation":[-0.5,-0.5,0.5,-0.5],"name":"Cylinder001"},{"mesh":6,"translation":[0.0,0.351967365,0.001500028],"name":"Box007"},{"mesh":7,"translation":[-0.195008948,0.347347945,0.192],"rotation":[0.7071068,0.0,0.0,0.7071067],"name":"Box006"},{"mesh":8,"translation":[0.395391762,0.347347945,0.192],"rotation":[0.7071068,0.0,0.0,0.7071067],"name":"Box005"},{"mesh":9,"translation":[0.7920002,0.347347945,0.192],"rotation":[0.7071068,0.0,0.0,0.7071067],"name":"Box004"},{"mesh":10,"translation":[-0.792000055,0.347347945,0.192],"rotation":[0.7071068,0.0,0.0,0.7071067],"name":"Box003"},{"mesh":11,"translation":[0.0,0.170347884,0.001500028],"name":"Box002"},{"mesh":12,"translation":[0.0,0.512348,0.001500028],"name":"Box001"},{"children":[18,19,20,21,22,23],"translation":[0.0,0.08542769,0.00149995426],"name":"Pé-PVCPalito"},{"mesh":13,"translation":[0.0,0.08550842,-2.14576734E-09],"rotation":[-7.54979E-08,-7.54979E-08,1.0,-5.69993331E-15],"name":"Pes01"},{"mesh":14,"translation":[0.55608,0.06647869,0.138782129],"name":"Box019"},{"mesh":14,"translation":[0.55608,0.06647869,-0.107226439],"name":"Box020"},{"mesh":14,"translation":[-0.556176,0.06647869,0.138782129],"rotation":[0.0,4.371139E-08,1.0,0.0],"scale":[1.0,-1.0,1.0],"name":"Box021"},{"mesh":14,"translation":[-0.556176,0.06647869,-0.107226439],"rotation":[0.0,4.371139E-08,1.0,0.0],"scale":[1.0,-1.0,1.0],"name":"Box022"},{"mesh":15,"translation":[-0.0103097465,0.06647869,0.0115437517],"rotation":[-0.7071068,3.09086161E-08,0.7071067,3.09086232E-08],"scale":[1.0,-1.0,1.0],"name":"Box023"},{"name":"Default light"}],"meshes":[{"primitives":[{"attributes":{"POSITION":1,"NORMAL":2},"indices":0,"material":0}],"name":"Plstico Redondo"},{"primitives":[{"attributes":{"POSITION":4,"NORMAL":5,"TEXCOORD_0":6},"indices":3,"material":0}],"name":"Box017"},{"primitives":[{"attributes":{"POSITION":8,"NORMAL":9,"TEXCOORD_0":10},"indices":7,"material":1},{"attributes":{"POSITION":12,"NORMAL":13,"TEXCOORD_0":14},"indices":11,"material":2}],"name":"Box018"},{"primitives":[{"attributes":{"POSITION":16,"NORMAL":17,"TEXCOORD_0":18},"indices":15,"material":3}],"name":"Box009"},{"primitives":[{"attributes":{"POSITION":20,"NORMAL":21,"TEXCOORD_0":22},"indices":19,"material":3}],"name":"Box008"},{"primitives":[{"attributes":{"POSITION":24,"NORMAL":25,"TEXCOORD_0":26},"indices":23,"material":0}],"name":"Cylinder004"},{"primitives":[{"attributes":{"POSITION":28,"NORMAL":29,"TEXCOORD_0":30},"indices":27,"material":1},{"attributes":{"POSITION":32,"NORMAL":33,"TEXCOORD_0":34},"indices":31,"material":2}],"name":"Box007"},{"primitives":[{"attributes":{"POSITION":36,"NORMAL":37,"TEXCOORD_0":38},"indices":35,"material":0}],"name":"Box006"},{"primitives":[{"attributes":{"POSITION":40,"NORMAL":41,"TEXCOORD_0":42},"indices":39,"material":0}],"name":"Box005"},{"primitives":[{"attributes":{"POSITION":44,"NORMAL":45,"TEXCOORD_0":46},"indices":43,"material":0}],"name":"Box004"},{"primitives":[{"attributes":{"POSITION":48,"NORMAL":49,"TEXCOORD_0":50},"indices":47,"material":0}],"name":"Box003"},{"primitives":[{"attributes":{"POSITION":52,"NORMAL":53,"TEXCOORD_0":54},"indices":51,"material":1},{"attributes":{"POSITION":56,"NORMAL":57,"TEXCOORD_0":58},"indices":55,"material":2}],"name":"Box002"},{"primitives":[{"attributes":{"POSITION":60,"NORMAL":61,"TEXCOORD_0":62},"indices":59,"material":1},{"attributes":{"POSITION":64,"NORMAL":65,"TEXCOORD_0":66},"indices":63,"material":2}],"name":"Box001"},{"primitives":[{"attributes":{"POSITION":68,"NORMAL":69,"TEXCOORD_0":70},"indices":67,"material":4}],"name":"Pes01"},{"primitives":[{"attributes":{"POSITION":72,"NORMAL":73,"TEXCOORD_0":74},"indices":71,"material":0}],"name":"Box019"},{"primitives":[{"attributes":{"POSITION":76,"NORMAL":77,"TEXCOORD_0":78},"indices":75,"material":0}],"name":"Box023"}],"accessors":[{"bufferView":0,"componentType":5123,"count":3282,"type":"SCALAR","name":"accessorIndices"},{"bufferView":1,"componentType":5126,"count":3282,"max":[1.05000072E-05,0.0001299992,-4.894659E-07],"min":[-2.04999978E-05,0.000113,-3.148947E-05],"type":"VEC3","name":"accessorPositions"},{"bufferView":1,"byteOffset":39384,"componentType":5126,"count":3282,"type":"VEC3","name":"accessorNormals"},{"bufferView":0,"byteOffset":6564,"componentType":5123,"count":264,"type":"SCALAR","name":"accessorIndices"},{"bufferView":1,"byteOffset":78768,"componentType":5126,"count":264,"max":[0.3075,0.0,0.006000062],"min":[-0.3075,-0.3219999,-0.00600006152],"type":"VEC3","name":"accessorPositions"},{"bufferView":1,"byteOffset":81936,"componentType":5126,"count":264,"type":"VEC3","name":"accessorNormals"},{"bufferView":2,"componentType":5126,"count":264,"type":"VEC2","name":"accessorUVs"},{"bufferView":0,"byteOffset":7092,"componentType":5123,"count":198,"type":"SCALAR","name":"accessorIndices"},{"bufferView":1,"byteOffset":85104,"componentType":5126,"count":198,"max":[0.796000063,0.0,0.0015],"min":[-0.796000063,-0.350000054,-0.0015],"type":"VEC3","name":"accessorPositions"},{"bufferView":1,"byteOffset":87480,"componentType":5126,"count":198,"type":"VEC3","name":"accessorNormals"},{"bufferView":2,"byteOffset":2112,"componentType":5126,"count":198,"type":"VEC2","name":"accessorUVs"},{"bufferView":0,"byteOffset":7488,"componentType":5123,"count":66,"type":"SCALAR","name":"accessorIndices"},{"bufferView":1,"byteOffset":89856,"componentType":5126,"count":66,"max":[0.796000063,0.0,-0.0015],"min":[-0.796000063,-0.350000054,-0.0015],"type":"VEC3","name":"accessorPositions"},{"bufferView":1,"byteOffset":90648,"componentType":5126,"count":66,"type":"VEC3","name":"accessorNormals"},{"bufferView":2,"byteOffset":3696,"componentType":5126,"count":66,"type":"VEC2","name":"accessorUVs"},{"bufferView":0,"byteOffset":7620,"componentType":5123,"count":120,"type":"SCALAR","name":"accessorIndices"},{"bufferView":1,"byteOffset":91440,"componentType":5126,"count":120,"max":[0.006368241,0.008499977,0.008081246],"min":[-1.16163182,-5.722046E-09,-0.008618779],"type":"VEC3","name":"accessorPositions"},{"bufferView":1,"byteOffset":92880,"componentType":5126,"count":120,"type":"VEC3","name":"accessorNormals"},{"bufferView":2,"byteOffset":4224,"componentType":5126,"count":120,"type":"VEC2","name":"accessorUVs"},{"bufferView":0,"byteOffset":7860,"componentType":5123,"count":120,"type":"SCALAR","name":"accessorIndices"},{"bufferView":1,"byteOffset":94320,"componentType":5126,"count":120,"max":[0.006368241,0.008499977,0.008081246],"min":[-1.16163182,-5.722046E-09,-0.008618779],"type":"VEC3","name":"accessorPositions"},{"bufferView":1,"byteOffset":95760,"componentType":5126,"count":120,"type":"VEC3","name":"accessorNormals"},{"bufferView":2,"byteOffset":5184,"componentType":5126,"count":120,"type":"VEC2","name":"accessorUVs"},{"bufferView":0,"byteOffset":8100,"componentType":5123,"count":1284,"type":"SCALAR","name":"accessorIndices"},{"bufferView":1,"byteOffset":97200,"componentType":5126,"count":1284,"max":[0.00500000035,0.0100000007,0.00500000035],"min":[-0.00500000035,0.0,-0.00500000035],"type":"VEC3","name":"accessorPositions"},{"bufferView":1,"byteOffset":112608,"componentType":5126,"count":1284,"type":"VEC3","name":"accessorNormals"},{"bufferView":2,"byteOffset":6144,"componentType":5126,"count":1284,"type":"VEC2","name":"accessorUVs"},{"bufferView":0,"byteOffset":10668,"componentType":5123,"count":30,"type":"SCALAR","name":"accessorIndices"},{"bufferView":1,"byteOffset":128016,"componentType":5126,"count":30,"max":[0.38939175,0.012,0.107499972],"min":[-0.189008951,0.0,-0.19250001],"type":"VEC3","name":"accessorPositions"},{"bufferView":1,"byteOffset":128376,"componentType":5126,"count":30,"type":"VEC3","name":"accessorNormals"},{"bufferView":2,"byteOffset":16416,"componentType":5126,"count":30,"type":"VEC2","name":"accessorUVs"},{"bufferView":0,"byteOffset":10728,"componentType":5123,"count":6,"type":"SCALAR","name":"accessorIndices"},{"bufferView":1,"byteOffset":128736,"componentType":5126,"count":6,"max":[0.38939175,0.0,0.107499972],"min":[-0.189008951,0.0,-0.19250001],"type":"VEC3","name":"accessorPositions"},{"bufferView":1,"byteOffset":128808,"componentType":5126,"count":6,"type":"VEC3","name":"accessorNormals"},{"bufferView":2,"byteOffset":16656,"componentType":5126,"count":6,"type":"VEC2","name":"accessorUVs"},{"bufferView":0,"byteOffset":10740,"componentType":5123,"count":36,"type":"SCALAR","name":"accessorIndices"},{"bufferView":1,"byteOffset":128880,"componentType":5126,"count":36,"max":[0.006,-0.0380000025,0.165000021],"min":[-0.006,-0.383000046,-0.165000021],"type":"VEC3","name":"accessorPositions"},{"bufferView":1,"byteOffset":129312,"componentType":5126,"count":36,"type":"VEC3","name":"accessorNormals"},{"bufferView":2,"byteOffset":16704,"componentType":5126,"count":36,"type":"VEC2","name":"accessorUVs"},{"bufferView":0,"byteOffset":10812,"componentType":5123,"count":36,"type":"SCALAR","name":"accessorIndices"},{"bufferView":1,"byteOffset":129744,"componentType":5126,"count":36,"max":[0.006,-3.0517576E-08,0.165000021],"min":[-0.006,-0.383000046,-0.165000021],"type":"VEC3","name":"accessorPositions"},{"bufferView":1,"byteOffset":130176,"componentType":5126,"count":36,"type":"VEC3","name":"accessorNormals"},{"bufferView":2,"byteOffset":16992,"componentType":5126,"count":36,"type":"VEC2","name":"accessorUVs"},{"bufferView":0,"byteOffset":10884,"componentType":5123,"count":36,"type":"SCALAR","name":"accessorIndices"},{"bufferView":1,"byteOffset":130608,"componentType":5126,"count":36,"max":[0.006,0.0,0.165000021],"min":[-0.006,-0.383000046,-0.165000021],"type":"VEC3","name":"accessorPositions"},{"bufferView":1,"byteOffset":131040,"componentType":5126,"count":36,"type":"VEC3","name":"accessorNormals"},{"bufferView":2,"byteOffset":17280,"componentType":5126,"count":36,"type":"VEC2","name":"accessorUVs"},{"bufferView":0,"byteOffset":10956,"componentType":5123,"count":36,"type":"SCALAR","name":"accessorIndices"},{"bufferView":1,"byteOffset":131472,"componentType":5126,"count":36,"max":[0.006,0.0,0.165000021],"min":[-0.006,-0.383000046,-0.165000021],"type":"VEC3","name":"accessorPositions"},{"bufferView":1,"byteOffset":131904,"componentType":5126,"count":36,"type":"VEC3","name":"accessorNormals"},{"bufferView":2,"byteOffset":17568,"componentType":5126,"count":36,"type":"VEC2","name":"accessorUVs"},{"bufferView":0,"byteOffset":11028,"componentType":5123,"count":30,"type":"SCALAR","name":"accessorIndices"},{"bufferView":1,"byteOffset":132336,"componentType":5126,"count":30,"max":[0.8,0.012,0.19250001],"min":[-0.8,0.0,-0.19250001],"type":"VEC3","name":"accessorPositions"},{"bufferView":1,"byteOffset":132696,"componentType":5126,"count":30,"type":"VEC3","name":"accessorNormals"},{"bufferView":2,"byteOffset":17856,"componentType":5126,"count":30,"type":"VEC2","name":"accessorUVs"},{"bufferView":0,"byteOffset":11088,"componentType":5123,"count":6,"type":"SCALAR","name":"accessorIndices"},{"bufferView":1,"byteOffset":133056,"componentType":5126,"count":6,"max":[0.8,0.0,0.19250001],"min":[-0.8,0.0,-0.19250001],"type":"VEC3","name":"accessorPositions"},{"bufferView":1,"byteOffset":133128,"componentType":5126,"count":6,"type":"VEC3","name":"accessorNormals"},{"bufferView":2,"byteOffset":18096,"componentType":5126,"count":6,"type":"VEC2","name":"accessorUVs"},{"bufferView":0,"byteOffset":11100,"componentType":5123,"count":30,"type":"SCALAR","name":"accessorIndices"},{"bufferView":1,"byteOffset":133200,"componentType":5126,"count":30,"max":[0.8,0.012,0.19250001],"min":[-0.8,0.0,-0.19250001],"type":"VEC3","name":"accessorPositions"},{"bufferView":1,"byteOffset":133560,"componentType":5126,"count":30,"type":"VEC3","name":"accessorNormals"},{"bufferView":2,"byteOffset":18144,"componentType":5126,"count":30,"type":"VEC2","name":"accessorUVs"},{"bufferView":0,"byteOffset":11160,"componentType":5123,"count":6,"type":"SCALAR","name":"accessorIndices"},{"bufferView":1,"byteOffset":133920,"componentType":5126,"count":6,"max":[0.8,0.0,0.19250001],"min":[-0.8,0.0,-0.19250001],"type":"VEC3","name":"accessorPositions"},{"bufferView":1,"byteOffset":133992,"componentType":5126,"count":6,"type":"VEC3","name":"accessorNormals"},{"bufferView":2,"byteOffset":18384,"componentType":5126,"count":6,"type":"VEC2","name":"accessorUVs"},{"bufferView":0,"byteOffset":11172,"componentType":5123,"count":36,"type":"SCALAR","name":"accessorIndices"},{"bufferView":1,"byteOffset":134064,"componentType":5126,"count":36,"max":[0.6,0.012,0.159999952],"min":[-0.6,0.0,-0.159999952],"type":"VEC3","name":"accessorPositions"},{"bufferView":1,"byteOffset":134496,"componentType":5126,"count":36,"type":"VEC3","name":"accessorNormals"},{"bufferView":2,"byteOffset":18432,"componentType":5126,"count":36,"type":"VEC2","name":"accessorUVs"},{"bufferView":0,"byteOffset":11244,"componentType":5123,"count":5130,"type":"SCALAR","name":"accessorIndices"},{"bufferView":1,"byteOffset":134928,"componentType":5126,"count":5130,"max":[0.04321787,0.00702971034,0.01727045],"min":[-0.03553592,-0.15198718,-0.0388258025],"type":"VEC3","name":"accessorPositions"},{"bufferView":1,"byteOffset":196488,"componentType":5126,"count":5130,"type":"VEC3","name":"accessorNormals"},{"bufferView":2,"byteOffset":18720,"componentType":5126,"count":5130,"type":"VEC2","name":"accessorUVs"},{"bufferView":0,"byteOffset":21504,"componentType":5123,"count":5130,"type":"SCALAR","name":"accessorIndices"},{"bufferView":1,"byteOffset":258048,"componentType":5126,"count":5130,"max":[0.04321787,0.00702971034,0.01727045],"min":[-0.03553592,-0.15198718,-0.0388258025],"type":"VEC3","name":"accessorPositions"},{"bufferView":1,"byteOffset":319608,"componentType":5126,"count":5130,"type":"VEC3","name":"accessorNormals"},{"bufferView":2,"byteOffset":59760,"componentType":5126,"count":5130,"type":"VEC2","name":"accessorUVs"}],"bufferViews":[{"buffer":0,"byteLength":31764,"name":"bufferViewScalar"},{"buffer":0,"byteOffset":31764,"byteLength":381168,"byteStride":12,"name":"bufferViewFloatVec3"},{"buffer":0,"byteOffset":412932,"byteLength":100800,"byteStride":8,"name":"bufferViewFloatVec2"}],"buffers":[{"uri":"Rack6002.bin","byteLength":513732}],"materials":[{"pbrMetallicRoughness":{"baseColorFactor":[0.8,0.8,0.8,1.0],"metallicFactor":0.0,"roughnessFactor":0.3},"name":"MAD_BR"},{"pbrMetallicRoughness":{"baseColorFactor":[0.8,0.8,0.8,1.0],"metallicFactor":0.0,"roughnessFactor":0.3},"name":"MAD_BR"},{"pbrMetallicRoughness":{"baseColorTexture":{"index":0},"metallicFactor":0.0,"roughnessFactor":0.6},"name":"MAD_MDF"},{"pbrMetallicRoughness":{"baseColorFactor":[0.6,0.6,0.6,1.0],"roughnessFactor":0.4},"name":"MET_FOSCO"},{"pbrMetallicRoughness":{"baseColorTexture":{"index":0},"metallicFactor":0.0,"roughnessFactor":0.6},"name":"MAD_MDF"}],"textures":[{"sampler":0,"source":0,"name":"MDF_C.jpg"}],"images":[{"uri":"./MDF_C.jpg"}],"samplers":[{"magFilter":9729,"minFilter":9987}]}