{"asset":{"version":"2.0","generator":"babylon.js glTF exporter for 3dsmax 2020 v20200508.2"},"extensionsUsed":["KHR_texture_transform"],"extensionsRequired":["KHR_texture_transform"],"scene":0,"scenes":[{"nodes":[0,1,2,3,4,5,6,7,8,9,10,11,12,13,18,19,20,21,22,23]}],"nodes":[{"mesh":0,"translation":[-1.03532152E-07,0.291348159,-5.022615E-05],"rotation":[-1.0,0.0,0.0,1.94707184E-07],"scale":[3949.743,3949.74316,3949.74316],"name":"VIFS130"},{"mesh":1,"translation":[-0.8005813,0.217487887,0.167794049],"name":"Plane001"},{"mesh":2,"translation":[-0.7995775,0.221558541,0.182842791],"rotation":[0.7071068,0.0,0.0,0.7071067],"name":"Box016"},{"mesh":3,"translation":[-0.265185,0.221558526,0.182842791],"rotation":[0.7071068,0.0,0.0,0.7071067],"name":"Box017"},{"mesh":4,"translation":[0.269207537,0.221558526,0.182842791],"rotation":[0.7071068,0.0,0.0,0.7071067],"name":"Box018"},{"mesh":5,"translation":[-0.7985745,0.307608783,-0.000789623242],"rotation":[0.5000001,-0.499999881,0.49999997,0.50000006],"name":"Plane002"},{"mesh":6,"translation":[0.7886258,0.3076088,-0.000789623242],"rotation":[0.5000001,-0.499999881,0.49999997,0.50000006],"name":"Plane003"},{"mesh":7,"translation":[-0.273575574,0.307608783,-0.000789623242],"rotation":[0.5000001,-0.499999881,0.49999997,0.50000006],"name":"Plane004"},{"mesh":8,"translation":[0.261131972,0.307608783,-0.000789623242],"rotation":[0.5000001,-0.499999881,0.49999997,0.50000006],"name":"Plane005"},{"mesh":9,"translation":[0.0,0.562672853,-0.000247650139],"name":"Plane006"},{"mesh":10,"translation":[-1.14440915E-07,0.3951329,-0.0005215454],"name":"Plane007"},{"mesh":11,"translation":[-7.62939436E-08,0.2332869,-0.0002477455],"name":"Plane008"},{"mesh":12,"translation":[-7.62939436E-08,0.390072018,-0.180328444],"rotation":[-5.338507E-08,-0.7071069,0.70710665,-5.33850866E-08],"name":"Plane009"},{"children":[14,15,16,17],"translation":[-0.0009385681,0.108579852,0.00145174412],"name":"Pes Palito"},{"mesh":13,"translation":[0.7140338,-0.104935676,0.175441056],"rotation":[0.0,1.62920685E-07,1.0,0.0],"scale":[0.95,-0.95,0.95],"name":"Cylinder006"},{"mesh":14,"translation":[0.7140338,-0.104935676,-0.178151771],"rotation":[0.0,-1.0,0.0,-1.62920685E-07],"scale":[0.95,0.95,0.95],"name":"Cylinder007"},{"mesh":15,"translation":[0.000970564666,-0.1087077,0.05411619],"name":"Cylinder008"},{"mesh":16,"translation":[-0.712497234,-0.104935676,-0.17870003],"rotation":[-1.0,-2.654315E-14,-1.62920685E-07,1.62920685E-07],"scale":[0.95,-0.95,0.95],"name":"Cylinder005"},{"mesh":17,"translation":[-0.702478647,0.0,0.1780166],"name":"Pé_Palito001"},{"mesh":18,"translation":[-0.702478647,0.0,-0.178436354],"rotation":[-1.0,0.0,0.0,0.0],"scale":[1.0,-1.0,1.0],"name":"Pé_Palito002"},{"mesh":19,"translation":[0.70217514,0.0,0.1780166],"rotation":[0.0,0.0,1.0,0.0],"scale":[1.0,-1.0,1.0],"name":"Pé_Palito003"},{"mesh":20,"translation":[0.70217514,0.0,-0.178436354],"rotation":[0.0,-1.0,0.0,0.0],"name":"Pé_Palito004"},{"mesh":21,"translation":[8.259415E-05,0.0173610877,0.05562524],"name":"Cylinder009"},{"name":"Default light"}],"meshes":[{"primitives":[{"attributes":{"POSITION":1,"NORMAL":2,"TEXCOORD_0":3},"indices":0,"material":0}],"name":"VIFS130"},{"primitives":[{"attributes":{"POSITION":5,"NORMAL":6,"TEXCOORD_0":7},"indices":4,"material":0}],"name":"Plane001"},{"primitives":[{"attributes":{"POSITION":9,"NORMAL":10,"TEXCOORD_0":11},"indices":8,"material":0}],"name":"Box016"},{"primitives":[{"attributes":{"POSITION":13,"NORMAL":14,"TEXCOORD_0":15},"indices":12,"material":0}],"name":"Box017"},{"primitives":[{"attributes":{"POSITION":17,"NORMAL":18,"TEXCOORD_0":19},"indices":16,"material":0}],"name":"Box018"},{"primitives":[{"attributes":{"POSITION":21,"NORMAL":22,"TEXCOORD_0":23},"indices":20,"material":0}],"name":"Plane002"},{"primitives":[{"attributes":{"POSITION":25,"NORMAL":26,"TEXCOORD_0":27},"indices":24,"material":0}],"name":"Plane003"},{"primitives":[{"attributes":{"POSITION":29,"NORMAL":30,"TEXCOORD_0":31},"indices":28,"material":0}],"name":"Plane004"},{"primitives":[{"attributes":{"POSITION":33,"NORMAL":34,"TEXCOORD_0":35},"indices":32,"material":0}],"name":"Plane005"},{"primitives":[{"attributes":{"POSITION":37,"NORMAL":38,"TEXCOORD_0":39},"indices":36,"material":0},{"attributes":{"POSITION":41,"NORMAL":42,"TEXCOORD_0":43},"indices":40,"material":1}],"name":"Plane006"},{"primitives":[{"attributes":{"POSITION":45,"NORMAL":46,"TEXCOORD_0":47},"indices":44,"material":0}],"name":"Plane007"},{"primitives":[{"attributes":{"POSITION":49,"NORMAL":50,"TEXCOORD_0":51},"indices":48,"material":0}],"name":"Plane008"},{"primitives":[{"attributes":{"POSITION":53,"NORMAL":54,"TEXCOORD_0":55},"indices":52,"material":0},{"attributes":{"POSITION":57,"NORMAL":58,"TEXCOORD_0":59},"indices":56,"material":1}],"name":"Plane009"},{"primitives":[{"attributes":{"POSITION":61,"NORMAL":62,"TEXCOORD_0":63},"indices":60,"material":2}],"name":"Cylinder006"},{"primitives":[{"attributes":{"POSITION":65,"NORMAL":66,"TEXCOORD_0":67},"indices":64,"material":2}],"name":"Cylinder007"},{"primitives":[{"attributes":{"POSITION":69,"NORMAL":70,"TEXCOORD_0":71},"indices":68,"material":3}],"name":"Cylinder008"},{"primitives":[{"attributes":{"POSITION":73,"NORMAL":74,"TEXCOORD_0":75},"indices":72,"material":2}],"name":"Cylinder005"},{"primitives":[{"attributes":{"POSITION":77,"NORMAL":78,"TEXCOORD_0":79},"indices":76,"material":2}],"name":"Pé_Palito001"},{"primitives":[{"attributes":{"POSITION":81,"NORMAL":82,"TEXCOORD_0":83},"indices":80,"material":2}],"name":"Pé_Palito002"},{"primitives":[{"attributes":{"POSITION":85,"NORMAL":86,"TEXCOORD_0":87},"indices":84,"material":2}],"name":"Pé_Palito003"},{"primitives":[{"attributes":{"POSITION":89,"NORMAL":90,"TEXCOORD_0":91},"indices":88,"material":2}],"name":"Pé_Palito004"},{"primitives":[{"attributes":{"POSITION":93,"NORMAL":94,"TEXCOORD_0":95},"indices":92,"material":2}],"name":"Cylinder009"}],"accessors":[{"bufferView":0,"componentType":5123,"count":4194,"type":"SCALAR","name":"accessorIndices"},{"bufferView":1,"componentType":5126,"count":4194,"max":[8.648126E-06,-3.563792E-05,4.64397926E-05],"min":[-8.648127E-06,-5.29826757E-05,4.1021E-05],"type":"VEC3","name":"accessorPositions"},{"bufferView":1,"byteOffset":50328,"componentType":5126,"count":4194,"type":"VEC3","name":"accessorNormals"},{"bufferView":2,"componentType":5126,"count":4194,"type":"VEC2","name":"accessorUVs"},{"bufferView":0,"byteOffset":8388,"componentType":5123,"count":6,"type":"SCALAR","name":"accessorIndices"},{"bufferView":1,"byteOffset":100656,"componentType":5126,"count":6,"max":[0.0,0.0,0.0],"min":[0.0,0.0,0.0],"type":"VEC3","name":"accessorPositions"},{"bufferView":1,"byteOffset":100728,"componentType":5126,"count":6,"type":"VEC3","name":"accessorNormals"},{"bufferView":2,"byteOffset":33552,"componentType":5126,"count":6,"type":"VEC2","name":"accessorUVs"},{"bufferView":0,"byteOffset":8400,"componentType":5123,"count":324,"type":"SCALAR","name":"accessorIndices"},{"bufferView":1,"byteOffset":100800,"componentType":5126,"count":324,"max":[0.530369937,-2.26497647E-08,2.38418565E-08],"min":[0.0,-0.0150000257,-0.18159996],"type":"VEC3","name":"accessorPositions"},{"bufferView":1,"byteOffset":104688,"componentType":5126,"count":324,"type":"VEC3","name":"accessorNormals"},{"bufferView":2,"byteOffset":33600,"componentType":5126,"count":324,"type":"VEC2","name":"accessorUVs"},{"bufferView":0,"byteOffset":9048,"componentType":5123,"count":324,"type":"SCALAR","name":"accessorIndices"},{"bufferView":1,"byteOffset":108576,"componentType":5126,"count":324,"max":[0.530369937,-2.26497647E-08,2.38418565E-08],"min":[0.0,-0.0150000257,-0.18159996],"type":"VEC3","name":"accessorPositions"},{"bufferView":1,"byteOffset":112464,"componentType":5126,"count":324,"type":"VEC3","name":"accessorNormals"},{"bufferView":2,"byteOffset":36192,"componentType":5126,"count":324,"type":"VEC2","name":"accessorUVs"},{"bufferView":0,"byteOffset":9696,"componentType":5123,"count":324,"type":"SCALAR","name":"accessorIndices"},{"bufferView":1,"byteOffset":116352,"componentType":5126,"count":324,"max":[0.530369937,-2.26497647E-08,2.38418565E-08],"min":[0.0,-0.0150000257,-0.18159996],"type":"VEC3","name":"accessorPositions"},{"bufferView":1,"byteOffset":120240,"componentType":5126,"count":324,"type":"VEC3","name":"accessorNormals"},{"bufferView":2,"byteOffset":38784,"componentType":5126,"count":324,"type":"VEC2","name":"accessorUVs"},{"bufferView":0,"byteOffset":10344,"componentType":5123,"count":324,"type":"SCALAR","name":"accessorIndices"},{"bufferView":1,"byteOffset":124128,"componentType":5126,"count":324,"max":[0.167500034,0.0,0.07500002],"min":[-0.167500034,-0.01,-0.07500002],"type":"VEC3","name":"accessorPositions"},{"bufferView":1,"byteOffset":128016,"componentType":5126,"count":324,"type":"VEC3","name":"accessorNormals"},{"bufferView":2,"byteOffset":41376,"componentType":5126,"count":324,"type":"VEC2","name":"accessorUVs"},{"bufferView":0,"byteOffset":10992,"componentType":5123,"count":324,"type":"SCALAR","name":"accessorIndices"},{"bufferView":1,"byteOffset":131904,"componentType":5126,"count":324,"max":[0.167500034,0.0,0.07500002],"min":[-0.167500034,-0.01,-0.07500002],"type":"VEC3","name":"accessorPositions"},{"bufferView":1,"byteOffset":135792,"componentType":5126,"count":324,"type":"VEC3","name":"accessorNormals"},{"bufferView":2,"byteOffset":43968,"componentType":5126,"count":324,"type":"VEC2","name":"accessorUVs"},{"bufferView":0,"byteOffset":11640,"componentType":5123,"count":324,"type":"SCALAR","name":"accessorIndices"},{"bufferView":1,"byteOffset":139680,"componentType":5126,"count":324,"max":[0.167500034,1.00172093E-08,0.07500002],"min":[-0.1353963,-0.0100000249,-0.229808435],"type":"VEC3","name":"accessorPositions"},{"bufferView":1,"byteOffset":143568,"componentType":5126,"count":324,"type":"VEC3","name":"accessorNormals"},{"bufferView":2,"byteOffset":46560,"componentType":5126,"count":324,"type":"VEC2","name":"accessorUVs"},{"bufferView":0,"byteOffset":12288,"componentType":5123,"count":324,"type":"SCALAR","name":"accessorIndices"},{"bufferView":1,"byteOffset":147456,"componentType":5126,"count":324,"max":[0.167500034,1.00172093E-08,0.07500002],"min":[-0.1353963,-0.0100000249,-0.229808435],"type":"VEC3","name":"accessorPositions"},{"bufferView":1,"byteOffset":151344,"componentType":5126,"count":324,"type":"VEC3","name":"accessorNormals"},{"bufferView":2,"byteOffset":49152,"componentType":5126,"count":324,"type":"VEC2","name":"accessorUVs"},{"bufferView":0,"byteOffset":12936,"componentType":5123,"count":318,"type":"SCALAR","name":"accessorIndices"},{"bufferView":1,"byteOffset":155232,"componentType":5126,"count":318,"max":[0.8005812,0.0,0.168041766],"min":[-0.8005812,-0.0249999985,-0.168041766],"type":"VEC3","name":"accessorPositions"},{"bufferView":1,"byteOffset":159048,"componentType":5126,"count":318,"type":"VEC3","name":"accessorNormals"},{"bufferView":2,"byteOffset":51744,"componentType":5126,"count":318,"type":"VEC2","name":"accessorUVs"},{"bufferView":0,"byteOffset":13572,"componentType":5123,"count":6,"type":"SCALAR","name":"accessorIndices"},{"bufferView":1,"byteOffset":162864,"componentType":5126,"count":6,"max":[0.7995812,-0.0249999985,0.167041749],"min":[-0.7995812,-0.0249999985,-0.167041749],"type":"VEC3","name":"accessorPositions"},{"bufferView":1,"byteOffset":162936,"componentType":5126,"count":6,"type":"VEC3","name":"accessorNormals"},{"bufferView":2,"byteOffset":54288,"componentType":5126,"count":6,"type":"VEC2","name":"accessorUVs"},{"bufferView":0,"byteOffset":13584,"componentType":5123,"count":2916,"type":"SCALAR","name":"accessorIndices"},{"bufferView":1,"byteOffset":163008,"componentType":5126,"count":2916,"max":[0.8005812,2.67848375E-08,0.167767942],"min":[-0.8005812,-0.0160000268,-0.167767942],"type":"VEC3","name":"accessorPositions"},{"bufferView":1,"byteOffset":198000,"componentType":5126,"count":2916,"type":"VEC3","name":"accessorNormals"},{"bufferView":2,"byteOffset":54336,"componentType":5126,"count":2916,"type":"VEC2","name":"accessorUVs"},{"bufferView":0,"byteOffset":19416,"componentType":5123,"count":324,"type":"SCALAR","name":"accessorIndices"},{"bufferView":1,"byteOffset":232992,"componentType":5126,"count":324,"max":[0.8005812,0.0,0.1680418],"min":[-0.8005812,-0.016,-0.1680418],"type":"VEC3","name":"accessorPositions"},{"bufferView":1,"byteOffset":236880,"componentType":5126,"count":324,"type":"VEC3","name":"accessorNormals"},{"bufferView":2,"byteOffset":77664,"componentType":5126,"count":324,"type":"VEC2","name":"accessorUVs"},{"bufferView":0,"byteOffset":20064,"componentType":5123,"count":486,"type":"SCALAR","name":"accessorIndices"},{"bufferView":1,"byteOffset":240768,"componentType":5126,"count":486,"max":[0.802587748,0.0,0.19312273],"min":[-0.802587748,-0.01205,-0.19312273],"type":"VEC3","name":"accessorPositions"},{"bufferView":1,"byteOffset":246600,"componentType":5126,"count":486,"type":"VEC3","name":"accessorNormals"},{"bufferView":2,"byteOffset":80256,"componentType":5126,"count":486,"type":"VEC2","name":"accessorUVs"},{"bufferView":0,"byteOffset":21036,"componentType":5123,"count":66,"type":"SCALAR","name":"accessorIndices"},{"bufferView":1,"byteOffset":252432,"componentType":5126,"count":66,"max":[0.80158776,0.0,0.192122728],"min":[-0.80158776,0.0,-0.192122728],"type":"VEC3","name":"accessorPositions"},{"bufferView":1,"byteOffset":253224,"componentType":5126,"count":66,"type":"VEC3","name":"accessorNormals"},{"bufferView":2,"byteOffset":84144,"componentType":5126,"count":66,"type":"VEC2","name":"accessorUVs"},{"bufferView":0,"byteOffset":21168,"componentType":5123,"count":204,"type":"SCALAR","name":"accessorIndices"},{"bufferView":1,"byteOffset":254016,"componentType":5126,"count":204,"max":[0.08836998,0.224887818,0.0156544652],"min":[-0.00259631034,-0.003954307,-0.07482477],"type":"VEC3","name":"accessorPositions"},{"bufferView":1,"byteOffset":256464,"componentType":5126,"count":204,"type":"VEC3","name":"accessorNormals"},{"bufferView":2,"byteOffset":84672,"componentType":5126,"count":204,"type":"VEC2","name":"accessorUVs"},{"bufferView":0,"byteOffset":21576,"componentType":5123,"count":204,"type":"SCALAR","name":"accessorIndices"},{"bufferView":1,"byteOffset":258912,"componentType":5126,"count":204,"max":[0.08836998,0.224887818,0.0156544652],"min":[-0.00259631034,-0.003954307,-0.07482477],"type":"VEC3","name":"accessorPositions"},{"bufferView":1,"byteOffset":261360,"componentType":5126,"count":204,"type":"VEC3","name":"accessorNormals"},{"bufferView":2,"byteOffset":86304,"componentType":5126,"count":204,"type":"VEC2","name":"accessorUVs"},{"bufferView":0,"byteOffset":21984,"componentType":5123,"count":1284,"type":"SCALAR","name":"accessorIndices"},{"bufferView":1,"byteOffset":263808,"componentType":5126,"count":1284,"max":[0.0124044186,0.0025,0.0124044186],"min":[-0.0124044186,0.0,-0.0124044186],"type":"VEC3","name":"accessorPositions"},{"bufferView":1,"byteOffset":279216,"componentType":5126,"count":1284,"type":"VEC3","name":"accessorNormals"},{"bufferView":2,"byteOffset":87936,"componentType":5126,"count":1284,"type":"VEC2","name":"accessorUVs"},{"bufferView":0,"byteOffset":24552,"componentType":5123,"count":204,"type":"SCALAR","name":"accessorIndices"},{"bufferView":1,"byteOffset":294624,"componentType":5126,"count":204,"max":[0.08836998,0.224887818,0.0156544652],"min":[-0.00259631034,-0.003954307,-0.07482477],"type":"VEC3","name":"accessorPositions"},{"bufferView":1,"byteOffset":297072,"componentType":5126,"count":204,"type":"VEC3","name":"accessorNormals"},{"bufferView":2,"byteOffset":98208,"componentType":5126,"count":204,"type":"VEC2","name":"accessorUVs"},{"bufferView":0,"byteOffset":24960,"componentType":5123,"count":852,"type":"SCALAR","name":"accessorIndices"},{"bufferView":1,"byteOffset":299520,"componentType":5126,"count":852,"max":[0.07302873,0.2172876,0.0128186457],"min":[-0.0128194112,0.0,-0.073136],"type":"VEC3","name":"accessorPositions"},{"bufferView":1,"byteOffset":309744,"componentType":5126,"count":852,"type":"VEC3","name":"accessorNormals"},{"bufferView":2,"byteOffset":99840,"componentType":5126,"count":852,"type":"VEC2","name":"accessorUVs"},{"bufferView":0,"byteOffset":26664,"componentType":5123,"count":852,"type":"SCALAR","name":"accessorIndices"},{"bufferView":1,"byteOffset":319968,"componentType":5126,"count":852,"max":[0.07302873,0.2172876,0.0128186457],"min":[-0.0128194112,0.0,-0.073136],"type":"VEC3","name":"accessorPositions"},{"bufferView":1,"byteOffset":330192,"componentType":5126,"count":852,"type":"VEC3","name":"accessorNormals"},{"bufferView":2,"byteOffset":106656,"componentType":5126,"count":852,"type":"VEC2","name":"accessorUVs"},{"bufferView":0,"byteOffset":28368,"componentType":5123,"count":852,"type":"SCALAR","name":"accessorIndices"},{"bufferView":1,"byteOffset":340416,"componentType":5126,"count":852,"max":[0.07302873,0.2172876,0.0128186457],"min":[-0.0128194112,0.0,-0.073136],"type":"VEC3","name":"accessorPositions"},{"bufferView":1,"byteOffset":350640,"componentType":5126,"count":852,"type":"VEC3","name":"accessorNormals"},{"bufferView":2,"byteOffset":113472,"componentType":5126,"count":852,"type":"VEC2","name":"accessorUVs"},{"bufferView":0,"byteOffset":30072,"componentType":5123,"count":852,"type":"SCALAR","name":"accessorIndices"},{"bufferView":1,"byteOffset":360864,"componentType":5126,"count":852,"max":[0.07302873,0.2172876,0.0128186457],"min":[-0.0128194112,0.0,-0.073136],"type":"VEC3","name":"accessorPositions"},{"bufferView":1,"byteOffset":371088,"componentType":5126,"count":852,"type":"VEC3","name":"accessorNormals"},{"bufferView":2,"byteOffset":120288,"componentType":5126,"count":852,"type":"VEC2","name":"accessorUVs"},{"bufferView":0,"byteOffset":31776,"componentType":5123,"count":420,"type":"SCALAR","name":"accessorIndices"},{"bufferView":1,"byteOffset":381312,"componentType":5126,"count":420,"max":[0.017,0.199999988,0.016741734],"min":[-0.017,-0.0150734754,-0.016741734],"type":"VEC3","name":"accessorPositions"},{"bufferView":1,"byteOffset":386352,"componentType":5126,"count":420,"type":"VEC3","name":"accessorNormals"},{"bufferView":2,"byteOffset":127104,"componentType":5126,"count":420,"type":"VEC2","name":"accessorUVs"}],"bufferViews":[{"buffer":0,"byteLength":32616,"name":"bufferViewScalar"},{"buffer":0,"byteOffset":32616,"byteLength":391392,"byteStride":12,"name":"bufferViewFloatVec3"},{"buffer":0,"byteOffset":424008,"byteLength":130464,"byteStride":8,"name":"bufferViewFloatVec2"}],"buffers":[{"uri":"Rack6002.bin","byteLength":554472}],"materials":[{"pbrMetallicRoughness":{"baseColorFactor":[0.8,0.8,0.8,1.0],"metallicFactor":0.0,"roughnessFactor":0.3},"name":"MAD_BR"},{"pbrMetallicRoughness":{"baseColorTexture":{"index":0,"extensions":{"KHR_texture_transform":{"offset":[0.0,0.0],"scale":[1.0,1.0],"texCoord":0}}},"metallicFactor":0.0,"roughnessFactor":0.6},"name":"MAD_MDF"},{"pbrMetallicRoughness":{"baseColorTexture":{"index":1,"extensions":{"KHR_texture_transform":{"offset":[0.0,0.0],"scale":[1.0,1.0],"texCoord":0}}},"metallicRoughnessTexture":{"index":2,"extensions":{"KHR_texture_transform":{"offset":[0.0,0.0],"scale":[1.0,1.0],"texCoord":0}}}},"name":"MAD_RC"},{"pbrMetallicRoughness":{"baseColorFactor":[0.01,0.01,0.01,1.0],"metallicFactor":0.0,"roughnessFactor":0.15},"name":"PAST_PR"}],"textures":[{"sampler":0,"source":0,"name":"MDF_C.jpg"},{"sampler":1,"source":1,"name":"Rustic_C.jpg"},{"sampler":1,"source":2,"name":"Rustic_R0.jpg"}],"images":[{"uri":"./MDF_C.jpg"},{"uri":"./Rustic_C.jpg"},{"uri":"./Rustic_R0.jpg"}],"samplers":[{"magFilter":9729,"minFilter":9987},{"magFilter":9729,"minFilter":9987,"wrapS":33648}]}