{"asset":{"version":"2.0","generator":"babylon.js glTF exporter for 3dsmax 2020 v20200508.2"},"scene":0,"scenes":[{"nodes":[0,7,22]}],"nodes":[{"children":[1,2,3,4,5,6],"translation":[-0.00145306438,0.003145126,0.002818475],"name":"Pes Baixos"},{"mesh":0,"translation":[0.8714872,0.0164999962,0.150179878],"name":"Pe-Baixo-06"},{"mesh":0,"translation":[0.8714872,0.0165000074,-0.139025837],"name":"Pe-Baixo-05"},{"mesh":0,"translation":[0.00157286844,0.0164999962,0.150179878],"name":"Pe-Baixo-02"},{"mesh":0,"translation":[0.001572868,0.0165000074,-0.139025837],"name":"Pe-Baixo-01"},{"mesh":0,"translation":[-0.868509948,0.0164999962,0.150179878],"name":"Box015"},{"mesh":0,"translation":[-0.868509948,0.0165000074,-0.139025837],"name":"Box016"},{"children":[8,9,10,11,12,13,14,15,16,17,18,19,20,21],"translation":[0.0,0.259,0.00706397137],"name":"Completo"},{"mesh":1,"translation":[0.0,0.24000001,0.00150010071],"name":"Box001"},{"mesh":2,"translation":[0.0,-0.228000015,0.00150010071],"name":"Box002"},{"mesh":3,"translation":[0.588,0.113999948,0.161500141],"name":"Box003"},{"mesh":4,"translation":[0.00599997723,0.228000015,0.111500122],"rotation":[0.5,-0.5,0.50000006,0.49999994],"name":"Box004"},{"mesh":5,"translation":[0.00599997723,0.102000065,-0.1584999],"rotation":[0.5,-0.5,0.50000006,0.49999994],"name":"Box005"},{"mesh":6,"translation":[0.6000001,0.102000065,-0.1584999],"rotation":[0.5,-0.5,0.50000006,0.49999994],"name":"Box006"},{"mesh":7,"translation":[-0.584000051,-0.22423996,0.109020047],"rotation":[0.5,-0.5,0.50000006,0.49999994],"name":"Line001"},{"mesh":8,"translation":[-0.584000051,0.0980000049,0.109020047],"rotation":[-0.49999997,-0.5,-0.49999997,0.50000006],"scale":[1.0,-1.0,1.0],"name":"Line002"},{"mesh":9,"translation":[0.898000062,0.102000065,-0.1584999],"rotation":[0.5,-0.5,0.50000006,0.49999994],"name":"Box009"},{"mesh":10,"translation":[-0.886000037,0.102000065,-0.1584999],"rotation":[0.5,-0.5,0.50000006,0.49999994],"name":"Box010"},{"mesh":11,"translation":[-0.892,-0.2379999,-0.160000056],"name":"Box012"},{"mesh":12,"translation":[0.0,-0.078989476,-0.0004999543],"rotation":[0.7071068,0.0,0.0,0.7071067],"scale":[1000.0,1000.0,1000.0],"name":"Plstico Redondo"},{"mesh":13,"translation":[-0.280500144,0.0980001241,0.12150012],"name":"Box017"},{"mesh":14,"translation":[-0.5880001,0.101999335,-0.1584999],"rotation":[0.5,-0.5,0.50000006,0.49999994],"name":"Box018"},{"name":"Default light"}],"meshes":[{"primitives":[{"attributes":{"POSITION":1,"NORMAL":2,"TEXCOORD_0":3},"indices":0,"material":0}],"name":"Pe-Baixo-06"},{"primitives":[{"attributes":{"POSITION":5,"NORMAL":6,"TEXCOORD_0":7},"indices":4,"material":1},{"attributes":{"POSITION":9,"NORMAL":10,"TEXCOORD_0":11},"indices":8,"material":2}],"name":"Box001"},{"primitives":[{"attributes":{"POSITION":13,"NORMAL":14,"TEXCOORD_0":15},"indices":12,"material":1},{"attributes":{"POSITION":17,"NORMAL":18,"TEXCOORD_0":19},"indices":16,"material":2}],"name":"Box002"},{"primitives":[{"attributes":{"POSITION":21,"NORMAL":22,"TEXCOORD_0":23},"indices":20,"material":1},{"attributes":{"POSITION":25,"NORMAL":26,"TEXCOORD_0":27},"indices":24,"material":2}],"name":"Box003"},{"primitives":[{"attributes":{"POSITION":29,"NORMAL":30,"TEXCOORD_0":31},"indices":28,"material":1}],"name":"Box004"},{"primitives":[{"attributes":{"POSITION":33,"NORMAL":34,"TEXCOORD_0":35},"indices":32,"material":1}],"name":"Box005"},{"primitives":[{"attributes":{"POSITION":37,"NORMAL":38,"TEXCOORD_0":39},"indices":36,"material":1}],"name":"Box006"},{"primitives":[{"attributes":{"POSITION":41,"NORMAL":42},"indices":40,"material":3}],"name":"Line001"},{"primitives":[{"attributes":{"POSITION":44,"NORMAL":45},"indices":43,"material":3}],"name":"Line002"},{"primitives":[{"attributes":{"POSITION":47,"NORMAL":48,"TEXCOORD_0":49},"indices":46,"material":1}],"name":"Box009"},{"primitives":[{"attributes":{"POSITION":51,"NORMAL":52,"TEXCOORD_0":53},"indices":50,"material":1}],"name":"Box010"},{"primitives":[{"attributes":{"POSITION":55,"NORMAL":56,"TEXCOORD_0":57},"indices":54,"material":1},{"attributes":{"POSITION":59,"NORMAL":60,"TEXCOORD_0":61},"indices":58,"material":2}],"name":"Box012"},{"primitives":[{"attributes":{"POSITION":63,"NORMAL":64},"indices":62,"material":4}],"name":"Plstico Redondo"},{"primitives":[{"attributes":{"POSITION":66,"NORMAL":67,"TEXCOORD_0":68},"indices":65,"material":1}],"name":"Box017"},{"primitives":[{"attributes":{"POSITION":70,"NORMAL":71,"TEXCOORD_0":72},"indices":69,"material":1}],"name":"Box018"}],"accessors":[{"bufferView":0,"componentType":5123,"count":966,"type":"SCALAR","name":"accessorIndices"},{"bufferView":1,"componentType":5126,"count":966,"max":[0.0224998873,0.0,0.0124999862],"min":[-0.0224999636,-0.0198683627,-0.0124999862],"type":"VEC3","name":"accessorPositions"},{"bufferView":1,"byteOffset":11592,"componentType":5126,"count":966,"type":"VEC3","name":"accessorNormals"},{"bufferView":2,"componentType":5126,"count":966,"type":"VEC2","name":"accessorUVs"},{"bufferView":0,"byteOffset":1932,"componentType":5123,"count":30,"type":"SCALAR","name":"accessorIndices"},{"bufferView":1,"byteOffset":23184,"componentType":5126,"count":30,"max":[0.900000036,0.0,0.160000011],"min":[-0.900000036,-0.012,-0.160000011],"type":"VEC3","name":"accessorPositions"},{"bufferView":1,"byteOffset":23544,"componentType":5126,"count":30,"type":"VEC3","name":"accessorNormals"},{"bufferView":2,"byteOffset":7728,"componentType":5126,"count":30,"type":"VEC2","name":"accessorUVs"},{"bufferView":0,"byteOffset":1992,"componentType":5123,"count":6,"type":"SCALAR","name":"accessorIndices"},{"bufferView":1,"byteOffset":23904,"componentType":5126,"count":6,"max":[0.900000036,-0.012,0.160000011],"min":[-0.900000036,-0.012,-0.160000011],"type":"VEC3","name":"accessorPositions"},{"bufferView":1,"byteOffset":23976,"componentType":5126,"count":6,"type":"VEC3","name":"accessorNormals"},{"bufferView":2,"byteOffset":7968,"componentType":5126,"count":6,"type":"VEC2","name":"accessorUVs"},{"bufferView":0,"byteOffset":2004,"componentType":5123,"count":30,"type":"SCALAR","name":"accessorIndices"},{"bufferView":1,"byteOffset":24048,"componentType":5126,"count":30,"max":[0.900000036,0.0,0.160000011],"min":[-0.900000036,-0.012,-0.160000011],"type":"VEC3","name":"accessorPositions"},{"bufferView":1,"byteOffset":24408,"componentType":5126,"count":30,"type":"VEC3","name":"accessorNormals"},{"bufferView":2,"byteOffset":8016,"componentType":5126,"count":30,"type":"VEC2","name":"accessorUVs"},{"bufferView":0,"byteOffset":2064,"componentType":5123,"count":6,"type":"SCALAR","name":"accessorIndices"},{"bufferView":1,"byteOffset":24768,"componentType":5126,"count":6,"max":[0.900000036,-0.012,0.160000011],"min":[-0.900000036,-0.012,-0.160000011],"type":"VEC3","name":"accessorPositions"},{"bufferView":1,"byteOffset":24840,"componentType":5126,"count":6,"type":"VEC3","name":"accessorNormals"},{"bufferView":2,"byteOffset":8256,"componentType":5126,"count":6,"type":"VEC2","name":"accessorUVs"},{"bufferView":0,"byteOffset":2076,"componentType":5123,"count":30,"type":"SCALAR","name":"accessorIndices"},{"bufferView":1,"byteOffset":24912,"componentType":5126,"count":30,"max":[0.0,0.0,-0.0220000613],"min":[-1.176,-0.012,-0.320000052],"type":"VEC3","name":"accessorPositions"},{"bufferView":1,"byteOffset":25272,"componentType":5126,"count":30,"type":"VEC3","name":"accessorNormals"},{"bufferView":2,"byteOffset":8304,"componentType":5126,"count":30,"type":"VEC2","name":"accessorUVs"},{"bufferView":0,"byteOffset":2136,"componentType":5123,"count":6,"type":"SCALAR","name":"accessorIndices"},{"bufferView":1,"byteOffset":25632,"componentType":5126,"count":6,"max":[0.0,-0.012,-0.0220000613],"min":[-1.176,-0.012,-0.320000052],"type":"VEC3","name":"accessorPositions"},{"bufferView":1,"byteOffset":25704,"componentType":5126,"count":6,"type":"VEC3","name":"accessorNormals"},{"bufferView":2,"byteOffset":8544,"componentType":5126,"count":6,"type":"VEC2","name":"accessorUVs"},{"bufferView":0,"byteOffset":2148,"componentType":5123,"count":36,"type":"SCALAR","name":"accessorIndices"},{"bufferView":1,"byteOffset":25776,"componentType":5126,"count":36,"max":[0.0,0.0120000085,0.114000008],"min":[-0.25000006,1.90734872E-09,0.0],"type":"VEC3","name":"accessorPositions"},{"bufferView":1,"byteOffset":26208,"componentType":5126,"count":36,"type":"VEC3","name":"accessorNormals"},{"bufferView":2,"byteOffset":8592,"componentType":5126,"count":36,"type":"VEC2","name":"accessorUVs"},{"bufferView":0,"byteOffset":2220,"componentType":5123,"count":36,"type":"SCALAR","name":"accessorIndices"},{"bufferView":1,"byteOffset":26640,"componentType":5126,"count":36,"max":[0.2550628,0.0120000029,0.330000073],"min":[-1.525879E-08,-3.91006481E-08,-3.81469745E-09],"type":"VEC3","name":"accessorPositions"},{"bufferView":1,"byteOffset":27072,"componentType":5126,"count":36,"type":"VEC3","name":"accessorNormals"},{"bufferView":2,"byteOffset":8880,"componentType":5126,"count":36,"type":"VEC2","name":"accessorUVs"},{"bufferView":0,"byteOffset":2292,"componentType":5123,"count":36,"type":"SCALAR","name":"accessorIndices"},{"bufferView":1,"byteOffset":27504,"componentType":5126,"count":36,"max":[0.299999923,0.0120000634,0.330000073],"min":[-1.525879E-08,-6.771088E-08,-0.125999942],"type":"VEC3","name":"accessorPositions"},{"bufferView":1,"byteOffset":27936,"componentType":5126,"count":36,"type":"VEC3","name":"accessorNormals"},{"bufferView":2,"byteOffset":9168,"componentType":5126,"count":36,"type":"VEC2","name":"accessorUVs"},{"bufferView":0,"byteOffset":2364,"componentType":5123,"count":108,"type":"SCALAR","name":"accessorIndices"},{"bufferView":1,"byteOffset":28368,"componentType":5126,"count":108,"max":[0.00648000231,0.0,0.00376000372],"min":[-0.009720012,-1.1680001,-0.004240012],"type":"VEC3","name":"accessorPositions"},{"bufferView":1,"byteOffset":29664,"componentType":5126,"count":108,"type":"VEC3","name":"accessorNormals"},{"bufferView":0,"byteOffset":2580,"componentType":5123,"count":108,"type":"SCALAR","name":"accessorIndices"},{"bufferView":1,"byteOffset":30960,"componentType":5126,"count":108,"max":[0.00648000231,0.0,0.00376000372],"min":[-0.009720012,-1.1680001,-0.004240012],"type":"VEC3","name":"accessorPositions"},{"bufferView":1,"byteOffset":32256,"componentType":5126,"count":108,"type":"VEC3","name":"accessorNormals"},{"bufferView":0,"byteOffset":2796,"componentType":5123,"count":36,"type":"SCALAR","name":"accessorIndices"},{"bufferView":1,"byteOffset":33552,"componentType":5126,"count":36,"max":[0.318000078,0.0120000634,0.330000073],"min":[-1.525879E-08,-7.152558E-08,-0.125999942],"type":"VEC3","name":"accessorPositions"},{"bufferView":1,"byteOffset":33984,"componentType":5126,"count":36,"type":"VEC3","name":"accessorNormals"},{"bufferView":2,"byteOffset":9456,"componentType":5126,"count":36,"type":"VEC2","name":"accessorUVs"},{"bufferView":0,"byteOffset":2868,"componentType":5123,"count":36,"type":"SCALAR","name":"accessorIndices"},{"bufferView":1,"byteOffset":34416,"componentType":5126,"count":36,"max":[0.318000078,0.0120000634,0.330000073],"min":[-1.525879E-08,-7.152558E-08,-0.125999942],"type":"VEC3","name":"accessorPositions"},{"bufferView":1,"byteOffset":34848,"componentType":5126,"count":36,"type":"VEC3","name":"accessorNormals"},{"bufferView":2,"byteOffset":9744,"componentType":5126,"count":36,"type":"VEC2","name":"accessorUVs"},{"bufferView":0,"byteOffset":2940,"componentType":5123,"count":90,"type":"SCALAR","name":"accessorIndices"},{"bufferView":1,"byteOffset":35280,"componentType":5126,"count":90,"max":[1.784,0.476,0.00150021538],"min":[-6.103516E-08,2.26989456E-15,-0.00150006078],"type":"VEC3","name":"accessorPositions"},{"bufferView":1,"byteOffset":36360,"componentType":5126,"count":90,"type":"VEC3","name":"accessorNormals"},{"bufferView":2,"byteOffset":10032,"componentType":5126,"count":90,"type":"VEC2","name":"accessorUVs"},{"bufferView":0,"byteOffset":3120,"componentType":5123,"count":18,"type":"SCALAR","name":"accessorIndices"},{"bufferView":1,"byteOffset":37440,"componentType":5126,"count":18,"max":[1.784,0.476,-0.0014998],"min":[-6.103516E-08,2.26989456E-15,-0.00150006078],"type":"VEC3","name":"accessorPositions"},{"bufferView":1,"byteOffset":37656,"componentType":5126,"count":18,"type":"VEC3","name":"accessorNormals"},{"bufferView":2,"byteOffset":10752,"componentType":5126,"count":18,"type":"VEC2","name":"accessorUVs"},{"bufferView":0,"byteOffset":3156,"componentType":5123,"count":3282,"type":"SCALAR","name":"accessorIndices"},{"bufferView":1,"byteOffset":37872,"componentType":5126,"count":3282,"max":[1.05000072E-05,0.0001299992,-4.894659E-07],"min":[-2.04999978E-05,0.000113,-3.148947E-05],"type":"VEC3","name":"accessorPositions"},{"bufferView":1,"byteOffset":77256,"componentType":5126,"count":3282,"type":"VEC3","name":"accessorNormals"},{"bufferView":0,"byteOffset":9720,"componentType":5123,"count":264,"type":"SCALAR","name":"accessorIndices"},{"bufferView":1,"byteOffset":116640,"componentType":5126,"count":264,"max":[0.3075,0.0,0.006000062],"min":[-0.3075,-0.3219999,-0.00600006152],"type":"VEC3","name":"accessorPositions"},{"bufferView":1,"byteOffset":119808,"componentType":5126,"count":264,"type":"VEC3","name":"accessorNormals"},{"bufferView":2,"byteOffset":10896,"componentType":5126,"count":264,"type":"VEC2","name":"accessorUVs"},{"bufferView":0,"byteOffset":10248,"componentType":5123,"count":36,"type":"SCALAR","name":"accessorIndices"},{"bufferView":1,"byteOffset":122976,"componentType":5126,"count":36,"max":[0.299999923,0.0120000634,0.330000073],"min":[-1.525879E-08,-6.771088E-08,-0.125999942],"type":"VEC3","name":"accessorPositions"},{"bufferView":1,"byteOffset":123408,"componentType":5126,"count":36,"type":"VEC3","name":"accessorNormals"},{"bufferView":2,"byteOffset":13008,"componentType":5126,"count":36,"type":"VEC2","name":"accessorUVs"}],"bufferViews":[{"buffer":0,"byteLength":10320,"name":"bufferViewScalar"},{"buffer":0,"byteOffset":10320,"byteLength":123840,"byteStride":12,"name":"bufferViewFloatVec3"},{"buffer":0,"byteOffset":134160,"byteLength":13296,"byteStride":8,"name":"bufferViewFloatVec2"}],"buffers":[{"uri":"7008 Sapata-Rustic.bin","byteLength":147456}],"materials":[{"pbrMetallicRoughness":{"baseColorFactor":[0.6,0.6,0.6,1.0],"metallicFactor":0.0,"roughnessFactor":0.15},"name":"PLAST_BR"},{"pbrMetallicRoughness":{"baseColorTexture":{"index":0},"metallicRoughnessTexture":{"index":1}},"name":"RUSTIC"},{"pbrMetallicRoughness":{"baseColorTexture":{"index":2},"metallicFactor":0.0,"roughnessFactor":0.6},"name":"MAD_MDF"},{"pbrMetallicRoughness":{"baseColorFactor":[0.6,0.6,0.6,1.0],"roughnessFactor":0.4},"name":"MET_FOSCO"},{"pbrMetallicRoughness":{"baseColorFactor":[0.01,0.01,0.01,1.0],"metallicFactor":0.0,"roughnessFactor":0.15},"name":"PAST_PR"}],"textures":[{"sampler":0,"source":0,"name":"Rustic_C.jpg"},{"sampler":0,"source":1,"name":"Rustic_R0.jpg"},{"sampler":0,"source":2,"name":"MDF_C.jpg"}],"images":[{"uri":"./Rustic_C.jpg"},{"uri":"./Rustic_R0.jpg"},{"uri":"./MDF_C.jpg"}],"samplers":[{"magFilter":9729,"minFilter":9987}]}